<?xml version="1.0" encoding="utf-8" standalone="no"?>
<!DOCTYPE svg PUBLIC "-//W3C//DTD SVG 1.1//EN"
  "http://www.w3.org/Graphics/SVG/1.1/DTD/svg11.dtd">
<svg xmlns:xlink="http://www.w3.org/1999/xlink" width="360pt" height="360pt" viewBox="0 0 360 360" xmlns="http://www.w3.org/2000/svg" version="1.1">
 <metadata>
  <rdf:RDF xmlns:dc="http://purl.org/dc/elements/1.1/" xmlns:cc="http://creativecommons.org/ns#" xmlns:rdf="http://www.w3.org/1999/02/22-rdf-syntax-ns#">
   <cc:Work>
    <dc:type rdf:resource="http://purl.org/dc/dcmitype/StillImage"/>
    <dc:date>2023-07-08T20:21:40.157609</dc:date>
    <dc:format>image/svg+xml</dc:format>
    <dc:creator>
     <cc:Agent>
      <dc:title>Matplotlib v3.5.3, https://matplotlib.org/</dc:title>
     </cc:Agent>
    </dc:creator>
   </cc:Work>
  </rdf:RDF>
 </metadata>
 <defs>
  <style type="text/css">*{stroke-linejoin: round; stroke-linecap: butt}</style>
 </defs>
 <g id="figure_1">
  <g id="patch_1">
   <path d="M 0 360 
L 360 360 
L 360 0 
L 0 0 
z
" style="fill: #ffffff"/>
  </g>
  <g id="axes_1">
   <g id="patch_2">
    <path d="M 58.68 312.66 
L 347.04 312.66 
L 347.04 12.96 
L 58.68 12.96 
z
" style="fill: #eaeaf2"/>
   </g>
   <g id="matplotlib.axis_1">
    <g id="xtick_1">
     <g id="line2d_1">
      <path d="M 93.747545 312.66 
L 93.747545 12.96 
" clip-path="url(#p3cf69ebbc5)" style="fill: none; stroke: #ffffff; stroke-linecap: round"/>
     </g>
     <g id="text_1">
      <!-- 0.96 -->
      <g style="fill: #262626" transform="translate(83.044029 330.033594)scale(0.11 -0.11)">
       <defs>
        <path id="ArialMT-30" d="M 266 2259 
Q 266 3072 433 3567 
Q 600 4063 929 4331 
Q 1259 4600 1759 4600 
Q 2128 4600 2406 4451 
Q 2684 4303 2865 4023 
Q 3047 3744 3150 3342 
Q 3253 2941 3253 2259 
Q 3253 1453 3087 958 
Q 2922 463 2592 192 
Q 2263 -78 1759 -78 
Q 1097 -78 719 397 
Q 266 969 266 2259 
z
M 844 2259 
Q 844 1131 1108 757 
Q 1372 384 1759 384 
Q 2147 384 2411 759 
Q 2675 1134 2675 2259 
Q 2675 3391 2411 3762 
Q 2147 4134 1753 4134 
Q 1366 4134 1134 3806 
Q 844 3388 844 2259 
z
" transform="scale(0.015625)"/>
        <path id="ArialMT-2e" d="M 581 0 
L 581 641 
L 1222 641 
L 1222 0 
L 581 0 
z
" transform="scale(0.015625)"/>
        <path id="ArialMT-39" d="M 350 1059 
L 891 1109 
Q 959 728 1153 556 
Q 1347 384 1650 384 
Q 1909 384 2104 503 
Q 2300 622 2425 820 
Q 2550 1019 2634 1356 
Q 2719 1694 2719 2044 
Q 2719 2081 2716 2156 
Q 2547 1888 2255 1720 
Q 1963 1553 1622 1553 
Q 1053 1553 659 1965 
Q 266 2378 266 3053 
Q 266 3750 677 4175 
Q 1088 4600 1706 4600 
Q 2153 4600 2523 4359 
Q 2894 4119 3086 3673 
Q 3278 3228 3278 2384 
Q 3278 1506 3087 986 
Q 2897 466 2520 194 
Q 2144 -78 1638 -78 
Q 1100 -78 759 220 
Q 419 519 350 1059 
z
M 2653 3081 
Q 2653 3566 2395 3850 
Q 2138 4134 1775 4134 
Q 1400 4134 1122 3828 
Q 844 3522 844 3034 
Q 844 2597 1108 2323 
Q 1372 2050 1759 2050 
Q 2150 2050 2401 2323 
Q 2653 2597 2653 3081 
z
" transform="scale(0.015625)"/>
        <path id="ArialMT-36" d="M 3184 3459 
L 2625 3416 
Q 2550 3747 2413 3897 
Q 2184 4138 1850 4138 
Q 1581 4138 1378 3988 
Q 1113 3794 959 3422 
Q 806 3050 800 2363 
Q 1003 2672 1297 2822 
Q 1591 2972 1913 2972 
Q 2475 2972 2870 2558 
Q 3266 2144 3266 1488 
Q 3266 1056 3080 686 
Q 2894 316 2569 119 
Q 2244 -78 1831 -78 
Q 1128 -78 684 439 
Q 241 956 241 2144 
Q 241 3472 731 4075 
Q 1159 4600 1884 4600 
Q 2425 4600 2770 4297 
Q 3116 3994 3184 3459 
z
M 888 1484 
Q 888 1194 1011 928 
Q 1134 663 1356 523 
Q 1578 384 1822 384 
Q 2178 384 2434 671 
Q 2691 959 2691 1453 
Q 2691 1928 2437 2201 
Q 2184 2475 1800 2475 
Q 1419 2475 1153 2201 
Q 888 1928 888 1484 
z
" transform="scale(0.015625)"/>
       </defs>
       <use xlink:href="#ArialMT-30"/>
       <use xlink:href="#ArialMT-2e" x="55.615234"/>
       <use xlink:href="#ArialMT-39" x="83.398438"/>
       <use xlink:href="#ArialMT-36" x="139.013672"/>
      </g>
     </g>
    </g>
    <g id="xtick_2">
     <g id="line2d_2">
      <path d="M 159.684829 312.66 
L 159.684829 12.96 
" clip-path="url(#p3cf69ebbc5)" style="fill: none; stroke: #ffffff; stroke-linecap: round"/>
     </g>
     <g id="text_2">
      <!-- 0.97 -->
      <g style="fill: #262626" transform="translate(148.981313 330.033594)scale(0.11 -0.11)">
       <defs>
        <path id="ArialMT-37" d="M 303 3981 
L 303 4522 
L 3269 4522 
L 3269 4084 
Q 2831 3619 2401 2847 
Q 1972 2075 1738 1259 
Q 1569 684 1522 0 
L 944 0 
Q 953 541 1156 1306 
Q 1359 2072 1739 2783 
Q 2119 3494 2547 3981 
L 303 3981 
z
" transform="scale(0.015625)"/>
       </defs>
       <use xlink:href="#ArialMT-30"/>
       <use xlink:href="#ArialMT-2e" x="55.615234"/>
       <use xlink:href="#ArialMT-39" x="83.398438"/>
       <use xlink:href="#ArialMT-37" x="139.013672"/>
      </g>
     </g>
    </g>
    <g id="xtick_3">
     <g id="line2d_3">
      <path d="M 225.622113 312.66 
L 225.622113 12.96 
" clip-path="url(#p3cf69ebbc5)" style="fill: none; stroke: #ffffff; stroke-linecap: round"/>
     </g>
     <g id="text_3">
      <!-- 0.98 -->
      <g style="fill: #262626" transform="translate(214.918597 330.033594)scale(0.11 -0.11)">
       <defs>
        <path id="ArialMT-38" d="M 1131 2484 
Q 781 2613 612 2850 
Q 444 3088 444 3419 
Q 444 3919 803 4259 
Q 1163 4600 1759 4600 
Q 2359 4600 2725 4251 
Q 3091 3903 3091 3403 
Q 3091 3084 2923 2848 
Q 2756 2613 2416 2484 
Q 2838 2347 3058 2040 
Q 3278 1734 3278 1309 
Q 3278 722 2862 322 
Q 2447 -78 1769 -78 
Q 1091 -78 675 323 
Q 259 725 259 1325 
Q 259 1772 486 2073 
Q 713 2375 1131 2484 
z
M 1019 3438 
Q 1019 3113 1228 2906 
Q 1438 2700 1772 2700 
Q 2097 2700 2305 2904 
Q 2513 3109 2513 3406 
Q 2513 3716 2298 3927 
Q 2084 4138 1766 4138 
Q 1444 4138 1231 3931 
Q 1019 3725 1019 3438 
z
M 838 1322 
Q 838 1081 952 856 
Q 1066 631 1291 507 
Q 1516 384 1775 384 
Q 2178 384 2440 643 
Q 2703 903 2703 1303 
Q 2703 1709 2433 1975 
Q 2163 2241 1756 2241 
Q 1359 2241 1098 1978 
Q 838 1716 838 1322 
z
" transform="scale(0.015625)"/>
       </defs>
       <use xlink:href="#ArialMT-30"/>
       <use xlink:href="#ArialMT-2e" x="55.615234"/>
       <use xlink:href="#ArialMT-39" x="83.398438"/>
       <use xlink:href="#ArialMT-38" x="139.013672"/>
      </g>
     </g>
    </g>
    <g id="xtick_4">
     <g id="line2d_4">
      <path d="M 291.559396 312.66 
L 291.559396 12.96 
" clip-path="url(#p3cf69ebbc5)" style="fill: none; stroke: #ffffff; stroke-linecap: round"/>
     </g>
     <g id="text_4">
      <!-- 0.99 -->
      <g style="fill: #262626" transform="translate(280.855881 330.033594)scale(0.11 -0.11)">
       <use xlink:href="#ArialMT-30"/>
       <use xlink:href="#ArialMT-2e" x="55.615234"/>
       <use xlink:href="#ArialMT-39" x="83.398438"/>
       <use xlink:href="#ArialMT-39" x="139.013672"/>
      </g>
     </g>
    </g>
    <g id="text_5">
     <!-- Bert Score -->
     <g style="fill: #262626" transform="translate(174.516562 344.809219)scale(0.12 -0.12)">
      <defs>
       <path id="ArialMT-42" d="M 469 0 
L 469 4581 
L 2188 4581 
Q 2713 4581 3030 4442 
Q 3347 4303 3526 4014 
Q 3706 3725 3706 3409 
Q 3706 3116 3547 2856 
Q 3388 2597 3066 2438 
Q 3481 2316 3704 2022 
Q 3928 1728 3928 1328 
Q 3928 1006 3792 729 
Q 3656 453 3456 303 
Q 3256 153 2954 76 
Q 2653 0 2216 0 
L 469 0 
z
M 1075 2656 
L 2066 2656 
Q 2469 2656 2644 2709 
Q 2875 2778 2992 2937 
Q 3109 3097 3109 3338 
Q 3109 3566 3000 3739 
Q 2891 3913 2687 3977 
Q 2484 4041 1991 4041 
L 1075 4041 
L 1075 2656 
z
M 1075 541 
L 2216 541 
Q 2509 541 2628 563 
Q 2838 600 2978 687 
Q 3119 775 3209 942 
Q 3300 1109 3300 1328 
Q 3300 1584 3169 1773 
Q 3038 1963 2805 2039 
Q 2572 2116 2134 2116 
L 1075 2116 
L 1075 541 
z
" transform="scale(0.015625)"/>
       <path id="ArialMT-65" d="M 2694 1069 
L 3275 997 
Q 3138 488 2766 206 
Q 2394 -75 1816 -75 
Q 1088 -75 661 373 
Q 234 822 234 1631 
Q 234 2469 665 2931 
Q 1097 3394 1784 3394 
Q 2450 3394 2872 2941 
Q 3294 2488 3294 1666 
Q 3294 1616 3291 1516 
L 816 1516 
Q 847 969 1125 678 
Q 1403 388 1819 388 
Q 2128 388 2347 550 
Q 2566 713 2694 1069 
z
M 847 1978 
L 2700 1978 
Q 2663 2397 2488 2606 
Q 2219 2931 1791 2931 
Q 1403 2931 1139 2672 
Q 875 2413 847 1978 
z
" transform="scale(0.015625)"/>
       <path id="ArialMT-72" d="M 416 0 
L 416 3319 
L 922 3319 
L 922 2816 
Q 1116 3169 1280 3281 
Q 1444 3394 1641 3394 
Q 1925 3394 2219 3213 
L 2025 2691 
Q 1819 2813 1613 2813 
Q 1428 2813 1281 2702 
Q 1134 2591 1072 2394 
Q 978 2094 978 1738 
L 978 0 
L 416 0 
z
" transform="scale(0.015625)"/>
       <path id="ArialMT-74" d="M 1650 503 
L 1731 6 
Q 1494 -44 1306 -44 
Q 1000 -44 831 53 
Q 663 150 594 308 
Q 525 466 525 972 
L 525 2881 
L 113 2881 
L 113 3319 
L 525 3319 
L 525 4141 
L 1084 4478 
L 1084 3319 
L 1650 3319 
L 1650 2881 
L 1084 2881 
L 1084 941 
Q 1084 700 1114 631 
Q 1144 563 1211 522 
Q 1278 481 1403 481 
Q 1497 481 1650 503 
z
" transform="scale(0.015625)"/>
       <path id="ArialMT-20" transform="scale(0.015625)"/>
       <path id="ArialMT-53" d="M 288 1472 
L 859 1522 
Q 900 1178 1048 958 
Q 1197 738 1509 602 
Q 1822 466 2213 466 
Q 2559 466 2825 569 
Q 3091 672 3220 851 
Q 3350 1031 3350 1244 
Q 3350 1459 3225 1620 
Q 3100 1781 2813 1891 
Q 2628 1963 1997 2114 
Q 1366 2266 1113 2400 
Q 784 2572 623 2826 
Q 463 3081 463 3397 
Q 463 3744 659 4045 
Q 856 4347 1234 4503 
Q 1613 4659 2075 4659 
Q 2584 4659 2973 4495 
Q 3363 4331 3572 4012 
Q 3781 3694 3797 3291 
L 3216 3247 
Q 3169 3681 2898 3903 
Q 2628 4125 2100 4125 
Q 1550 4125 1298 3923 
Q 1047 3722 1047 3438 
Q 1047 3191 1225 3031 
Q 1400 2872 2139 2705 
Q 2878 2538 3153 2413 
Q 3553 2228 3743 1945 
Q 3934 1663 3934 1294 
Q 3934 928 3725 604 
Q 3516 281 3123 101 
Q 2731 -78 2241 -78 
Q 1619 -78 1198 103 
Q 778 284 539 648 
Q 300 1013 288 1472 
z
" transform="scale(0.015625)"/>
       <path id="ArialMT-63" d="M 2588 1216 
L 3141 1144 
Q 3050 572 2676 248 
Q 2303 -75 1759 -75 
Q 1078 -75 664 370 
Q 250 816 250 1647 
Q 250 2184 428 2587 
Q 606 2991 970 3192 
Q 1334 3394 1763 3394 
Q 2303 3394 2647 3120 
Q 2991 2847 3088 2344 
L 2541 2259 
Q 2463 2594 2264 2762 
Q 2066 2931 1784 2931 
Q 1359 2931 1093 2626 
Q 828 2322 828 1663 
Q 828 994 1084 691 
Q 1341 388 1753 388 
Q 2084 388 2306 591 
Q 2528 794 2588 1216 
z
" transform="scale(0.015625)"/>
       <path id="ArialMT-6f" d="M 213 1659 
Q 213 2581 725 3025 
Q 1153 3394 1769 3394 
Q 2453 3394 2887 2945 
Q 3322 2497 3322 1706 
Q 3322 1066 3130 698 
Q 2938 331 2570 128 
Q 2203 -75 1769 -75 
Q 1072 -75 642 372 
Q 213 819 213 1659 
z
M 791 1659 
Q 791 1022 1069 705 
Q 1347 388 1769 388 
Q 2188 388 2466 706 
Q 2744 1025 2744 1678 
Q 2744 2294 2464 2611 
Q 2184 2928 1769 2928 
Q 1347 2928 1069 2612 
Q 791 2297 791 1659 
z
" transform="scale(0.015625)"/>
      </defs>
      <use xlink:href="#ArialMT-42"/>
      <use xlink:href="#ArialMT-65" x="66.699219"/>
      <use xlink:href="#ArialMT-72" x="122.314453"/>
      <use xlink:href="#ArialMT-74" x="155.615234"/>
      <use xlink:href="#ArialMT-20" x="183.398438"/>
      <use xlink:href="#ArialMT-53" x="211.181641"/>
      <use xlink:href="#ArialMT-63" x="277.880859"/>
      <use xlink:href="#ArialMT-6f" x="327.880859"/>
      <use xlink:href="#ArialMT-72" x="383.496094"/>
      <use xlink:href="#ArialMT-65" x="416.796875"/>
     </g>
    </g>
   </g>
   <g id="matplotlib.axis_2">
    <g id="ytick_1">
     <g id="line2d_5">
      <path d="M 58.68 282.224228 
L 347.04 282.224228 
" clip-path="url(#p3cf69ebbc5)" style="fill: none; stroke: #ffffff; stroke-linecap: round"/>
     </g>
     <g id="text_6">
      <!-- 0.50 -->
      <g style="fill: #262626" transform="translate(27.772969 286.161025)scale(0.11 -0.11)">
       <defs>
        <path id="ArialMT-35" d="M 266 1200 
L 856 1250 
Q 922 819 1161 601 
Q 1400 384 1738 384 
Q 2144 384 2425 690 
Q 2706 997 2706 1503 
Q 2706 1984 2436 2262 
Q 2166 2541 1728 2541 
Q 1456 2541 1237 2417 
Q 1019 2294 894 2097 
L 366 2166 
L 809 4519 
L 3088 4519 
L 3088 3981 
L 1259 3981 
L 1013 2750 
Q 1425 3038 1878 3038 
Q 2478 3038 2890 2622 
Q 3303 2206 3303 1553 
Q 3303 931 2941 478 
Q 2500 -78 1738 -78 
Q 1113 -78 717 272 
Q 322 622 266 1200 
z
" transform="scale(0.015625)"/>
       </defs>
       <use xlink:href="#ArialMT-30"/>
       <use xlink:href="#ArialMT-2e" x="55.615234"/>
       <use xlink:href="#ArialMT-35" x="83.398438"/>
       <use xlink:href="#ArialMT-30" x="139.013672"/>
      </g>
     </g>
    </g>
    <g id="ytick_2">
     <g id="line2d_6">
      <path d="M 58.68 226.426303 
L 347.04 226.426303 
" clip-path="url(#p3cf69ebbc5)" style="fill: none; stroke: #ffffff; stroke-linecap: round"/>
     </g>
     <g id="text_7">
      <!-- 0.52 -->
      <g style="fill: #262626" transform="translate(27.772969 230.363099)scale(0.11 -0.11)">
       <defs>
        <path id="ArialMT-32" d="M 3222 541 
L 3222 0 
L 194 0 
Q 188 203 259 391 
Q 375 700 629 1000 
Q 884 1300 1366 1694 
Q 2113 2306 2375 2664 
Q 2638 3022 2638 3341 
Q 2638 3675 2398 3904 
Q 2159 4134 1775 4134 
Q 1369 4134 1125 3890 
Q 881 3647 878 3216 
L 300 3275 
Q 359 3922 746 4261 
Q 1134 4600 1788 4600 
Q 2447 4600 2831 4234 
Q 3216 3869 3216 3328 
Q 3216 3053 3103 2787 
Q 2991 2522 2730 2228 
Q 2469 1934 1863 1422 
Q 1356 997 1212 845 
Q 1069 694 975 541 
L 3222 541 
z
" transform="scale(0.015625)"/>
       </defs>
       <use xlink:href="#ArialMT-30"/>
       <use xlink:href="#ArialMT-2e" x="55.615234"/>
       <use xlink:href="#ArialMT-35" x="83.398438"/>
       <use xlink:href="#ArialMT-32" x="139.013672"/>
      </g>
     </g>
    </g>
    <g id="ytick_3">
     <g id="line2d_7">
      <path d="M 58.68 170.628377 
L 347.04 170.628377 
" clip-path="url(#p3cf69ebbc5)" style="fill: none; stroke: #ffffff; stroke-linecap: round"/>
     </g>
     <g id="text_8">
      <!-- 0.54 -->
      <g style="fill: #262626" transform="translate(27.772969 174.565174)scale(0.11 -0.11)">
       <defs>
        <path id="ArialMT-34" d="M 2069 0 
L 2069 1097 
L 81 1097 
L 81 1613 
L 2172 4581 
L 2631 4581 
L 2631 1613 
L 3250 1613 
L 3250 1097 
L 2631 1097 
L 2631 0 
L 2069 0 
z
M 2069 1613 
L 2069 3678 
L 634 1613 
L 2069 1613 
z
" transform="scale(0.015625)"/>
       </defs>
       <use xlink:href="#ArialMT-30"/>
       <use xlink:href="#ArialMT-2e" x="55.615234"/>
       <use xlink:href="#ArialMT-35" x="83.398438"/>
       <use xlink:href="#ArialMT-34" x="139.013672"/>
      </g>
     </g>
    </g>
    <g id="ytick_4">
     <g id="line2d_8">
      <path d="M 58.68 114.830451 
L 347.04 114.830451 
" clip-path="url(#p3cf69ebbc5)" style="fill: none; stroke: #ffffff; stroke-linecap: round"/>
     </g>
     <g id="text_9">
      <!-- 0.56 -->
      <g style="fill: #262626" transform="translate(27.772969 118.767248)scale(0.11 -0.11)">
       <use xlink:href="#ArialMT-30"/>
       <use xlink:href="#ArialMT-2e" x="55.615234"/>
       <use xlink:href="#ArialMT-35" x="83.398438"/>
       <use xlink:href="#ArialMT-36" x="139.013672"/>
      </g>
     </g>
    </g>
    <g id="ytick_5">
     <g id="line2d_9">
      <path d="M 58.68 59.032526 
L 347.04 59.032526 
" clip-path="url(#p3cf69ebbc5)" style="fill: none; stroke: #ffffff; stroke-linecap: round"/>
     </g>
     <g id="text_10">
      <!-- 0.58 -->
      <g style="fill: #262626" transform="translate(27.772969 62.969322)scale(0.11 -0.11)">
       <use xlink:href="#ArialMT-30"/>
       <use xlink:href="#ArialMT-2e" x="55.615234"/>
       <use xlink:href="#ArialMT-35" x="83.398438"/>
       <use xlink:href="#ArialMT-38" x="139.013672"/>
      </g>
     </g>
    </g>
    <g id="text_11">
     <!-- F1 Score -->
     <g style="fill: #262626" transform="translate(21.387969 187.15125)rotate(-90)scale(0.12 -0.12)">
      <defs>
       <path id="ArialMT-46" d="M 525 0 
L 525 4581 
L 3616 4581 
L 3616 4041 
L 1131 4041 
L 1131 2622 
L 3281 2622 
L 3281 2081 
L 1131 2081 
L 1131 0 
L 525 0 
z
" transform="scale(0.015625)"/>
       <path id="ArialMT-31" d="M 2384 0 
L 1822 0 
L 1822 3584 
Q 1619 3391 1289 3197 
Q 959 3003 697 2906 
L 697 3450 
Q 1169 3672 1522 3987 
Q 1875 4303 2022 4600 
L 2384 4600 
L 2384 0 
z
" transform="scale(0.015625)"/>
      </defs>
      <use xlink:href="#ArialMT-46"/>
      <use xlink:href="#ArialMT-31" x="61.083984"/>
      <use xlink:href="#ArialMT-20" x="116.699219"/>
      <use xlink:href="#ArialMT-53" x="144.482422"/>
      <use xlink:href="#ArialMT-63" x="211.181641"/>
      <use xlink:href="#ArialMT-6f" x="261.181641"/>
      <use xlink:href="#ArialMT-72" x="316.796875"/>
      <use xlink:href="#ArialMT-65" x="350.097656"/>
     </g>
    </g>
   </g>
   <g id="PathCollection_1">
    <defs>
     <path id="m7fb36281be" d="M 0 3 
C 0.795609 3 1.55874 2.683901 2.12132 2.12132 
C 2.683901 1.55874 3 0.795609 3 0 
C 3 -0.795609 2.683901 -1.55874 2.12132 -2.12132 
C 1.55874 -2.683901 0.795609 -3 0 -3 
C -0.795609 -3 -1.55874 -2.683901 -2.12132 -2.12132 
C -2.683901 -1.55874 -3 -0.795609 -3 0 
C -3 0.795609 -2.683901 1.55874 -2.12132 2.12132 
C -1.55874 2.683901 -0.795609 3 0 3 
z
" style="stroke: #4c72b0; stroke-opacity: 0.8"/>
    </defs>
    <g clip-path="url(#p3cf69ebbc5)">
     <use xlink:href="#m7fb36281be" x="333.932727" y="72.010679" style="fill: #4c72b0; fill-opacity: 0.8; stroke: #4c72b0; stroke-opacity: 0.8"/>
     <use xlink:href="#m7fb36281be" x="320.581002" y="42.319229" style="fill: #4c72b0; fill-opacity: 0.8; stroke: #4c72b0; stroke-opacity: 0.8"/>
     <use xlink:href="#m7fb36281be" x="300.72359" y="72.472266" style="fill: #4c72b0; fill-opacity: 0.8; stroke: #4c72b0; stroke-opacity: 0.8"/>
     <use xlink:href="#m7fb36281be" x="283.533819" y="134.28143" style="fill: #4c72b0; fill-opacity: 0.8; stroke: #4c72b0; stroke-opacity: 0.8"/>
     <use xlink:href="#m7fb36281be" x="269.012084" y="219.45309" style="fill: #4c72b0; fill-opacity: 0.8; stroke: #4c72b0; stroke-opacity: 0.8"/>
     <use xlink:href="#m7fb36281be" x="254.002692" y="115.163834" style="fill: #4c72b0; fill-opacity: 0.8; stroke: #4c72b0; stroke-opacity: 0.8"/>
     <use xlink:href="#m7fb36281be" x="244.735669" y="97.850976" style="fill: #4c72b0; fill-opacity: 0.8; stroke: #4c72b0; stroke-opacity: 0.8"/>
     <use xlink:href="#m7fb36281be" x="218.550922" y="128.622759" style="fill: #4c72b0; fill-opacity: 0.8; stroke: #4c72b0; stroke-opacity: 0.8"/>
     <use xlink:href="#m7fb36281be" x="213.93887" y="185.199009" style="fill: #4c72b0; fill-opacity: 0.8; stroke: #4c72b0; stroke-opacity: 0.8"/>
     <use xlink:href="#m7fb36281be" x="197.498032" y="136.474459" style="fill: #4c72b0; fill-opacity: 0.8; stroke: #4c72b0; stroke-opacity: 0.8"/>
     <use xlink:href="#m7fb36281be" x="184.206753" y="59.561407" style="fill: #4c72b0; fill-opacity: 0.8; stroke: #4c72b0; stroke-opacity: 0.8"/>
     <use xlink:href="#m7fb36281be" x="171.947535" y="248.744564" style="fill: #4c72b0; fill-opacity: 0.8; stroke: #4c72b0; stroke-opacity: 0.8"/>
     <use xlink:href="#m7fb36281be" x="160.096506" y="217.428116" style="fill: #4c72b0; fill-opacity: 0.8; stroke: #4c72b0; stroke-opacity: 0.8"/>
     <use xlink:href="#m7fb36281be" x="149.105712" y="216.399235" style="fill: #4c72b0; fill-opacity: 0.8; stroke: #4c72b0; stroke-opacity: 0.8"/>
     <use xlink:href="#m7fb36281be" x="136.781411" y="248.408312" style="fill: #4c72b0; fill-opacity: 0.8; stroke: #4c72b0; stroke-opacity: 0.8"/>
     <use xlink:href="#m7fb36281be" x="121.413038" y="256.437625" style="fill: #4c72b0; fill-opacity: 0.8; stroke: #4c72b0; stroke-opacity: 0.8"/>
     <use xlink:href="#m7fb36281be" x="109.325962" y="257.588874" style="fill: #4c72b0; fill-opacity: 0.8; stroke: #4c72b0; stroke-opacity: 0.8"/>
     <use xlink:href="#m7fb36281be" x="98.417858" y="273.242051" style="fill: #4c72b0; fill-opacity: 0.8; stroke: #4c72b0; stroke-opacity: 0.8"/>
     <use xlink:href="#m7fb36281be" x="83.432834" y="253.658348" style="fill: #4c72b0; fill-opacity: 0.8; stroke: #4c72b0; stroke-opacity: 0.8"/>
     <use xlink:href="#m7fb36281be" x="71.787273" y="269.96575" style="fill: #4c72b0; fill-opacity: 0.8; stroke: #4c72b0; stroke-opacity: 0.8"/>
    </g>
   </g>
   <g id="PolyCollection_1">
    <defs>
     <path id="m6f24bdad85" d="M 71.787273 -108.838844 
L 71.787273 -60.962727 
L 74.435207 -63.247711 
L 77.08314 -65.668779 
L 79.731074 -68.105557 
L 82.379008 -70.566879 
L 85.026942 -72.882069 
L 87.674876 -75.282328 
L 90.32281 -77.682587 
L 92.970744 -80.082846 
L 95.618678 -82.483105 
L 98.266612 -84.896019 
L 100.914545 -87.300344 
L 103.562479 -89.699291 
L 106.210413 -92.026885 
L 108.858347 -94.471163 
L 111.506281 -96.841266 
L 114.154215 -99.211368 
L 116.802149 -101.632298 
L 119.450083 -104.107553 
L 122.098017 -106.451959 
L 124.74595 -108.591995 
L 127.393884 -110.690621 
L 130.041818 -112.985491 
L 132.689752 -115.29249 
L 135.337686 -117.479591 
L 137.98562 -119.703372 
L 140.633554 -122.045179 
L 143.281488 -124.571031 
L 145.929421 -126.702369 
L 148.577355 -128.808925 
L 151.225289 -130.609981 
L 153.873223 -132.768081 
L 156.521157 -134.8664 
L 159.169091 -137.21891 
L 161.817025 -139.551027 
L 164.464959 -141.496643 
L 167.112893 -143.434989 
L 169.760826 -145.491603 
L 172.40876 -147.325088 
L 175.056694 -149.45574 
L 177.704628 -151.252406 
L 180.352562 -153.352761 
L 183.000496 -155.50121 
L 185.64843 -157.250269 
L 188.296364 -159.478507 
L 190.944298 -161.662532 
L 193.592231 -163.348882 
L 196.240165 -165.121323 
L 198.888099 -167.116391 
L 201.536033 -168.705882 
L 204.183967 -170.580371 
L 206.831901 -172.52057 
L 209.479835 -174.367703 
L 212.127769 -176.121632 
L 214.775702 -177.876801 
L 217.423636 -179.593373 
L 220.07157 -181.34307 
L 222.719504 -183.284439 
L 225.367438 -185.122619 
L 228.015372 -187.109974 
L 230.663306 -188.909057 
L 233.31124 -190.825668 
L 235.959174 -192.457462 
L 238.607107 -194.260469 
L 241.255041 -196.068066 
L 243.902975 -197.809057 
L 246.550909 -199.650151 
L 249.198843 -201.491244 
L 251.846777 -203.332338 
L 254.494711 -205.173431 
L 257.142645 -207.014525 
L 259.790579 -208.855618 
L 262.438512 -210.696712 
L 265.086446 -212.538159 
L 267.73438 -214.334124 
L 270.382314 -216.108929 
L 273.030248 -217.883735 
L 275.678182 -219.65854 
L 278.326116 -221.433345 
L 280.97405 -223.208151 
L 283.621983 -224.982956 
L 286.269917 -226.757761 
L 288.917851 -228.532567 
L 291.565785 -230.41998 
L 294.213719 -232.31736 
L 296.861653 -234.21474 
L 299.509587 -236.11212 
L 302.157521 -237.941687 
L 304.805455 -239.508157 
L 307.453388 -241.074628 
L 310.101322 -242.703816 
L 312.749256 -244.470137 
L 315.39719 -246.236457 
L 318.045124 -248.002778 
L 320.693058 -249.769098 
L 323.340992 -251.535419 
L 325.988926 -253.11423 
L 328.63686 -254.559821 
L 331.284793 -256.005412 
L 333.932727 -257.454796 
L 333.932727 -333.417273 
L 333.932727 -333.417273 
L 331.284793 -330.695585 
L 328.63686 -328.227205 
L 325.988926 -325.729667 
L 323.340992 -323.163737 
L 320.693058 -320.528973 
L 318.045124 -318.032933 
L 315.39719 -315.49924 
L 312.749256 -312.905117 
L 310.101322 -310.235046 
L 307.453388 -307.710771 
L 304.805455 -305.208883 
L 302.157521 -302.646653 
L 299.509587 -300.084423 
L 296.861653 -297.522194 
L 294.213719 -294.959964 
L 291.565785 -292.394853 
L 288.917851 -289.826657 
L 286.269917 -287.275077 
L 283.621983 -284.746466 
L 280.97405 -282.136285 
L 278.326116 -279.577307 
L 275.678182 -277.016425 
L 273.030248 -274.516326 
L 270.382314 -272.175554 
L 267.73438 -269.834781 
L 265.086446 -267.300184 
L 262.438512 -264.655601 
L 259.790579 -262.158172 
L 257.142645 -259.787468 
L 254.494711 -257.27432 
L 251.846777 -255.046059 
L 249.198843 -252.631518 
L 246.550909 -250.230418 
L 243.902975 -247.739941 
L 241.255041 -245.155047 
L 238.607107 -242.617307 
L 235.959174 -240.203569 
L 233.31124 -238.159324 
L 230.663306 -236.109356 
L 228.015372 -233.743059 
L 225.367438 -231.236258 
L 222.719504 -228.988435 
L 220.07157 -226.644188 
L 217.423636 -224.43128 
L 214.775702 -222.025293 
L 212.127769 -219.895616 
L 209.479835 -217.538043 
L 206.831901 -215.268333 
L 204.183967 -213.010392 
L 201.536033 -210.526841 
L 198.888099 -207.933544 
L 196.240165 -205.672536 
L 193.592231 -203.238431 
L 190.944298 -200.794372 
L 188.296364 -198.504495 
L 185.64843 -196.285995 
L 183.000496 -194.05323 
L 180.352562 -191.818269 
L 177.704628 -189.583308 
L 175.056694 -187.218009 
L 172.40876 -185.127286 
L 169.760826 -183.176061 
L 167.112893 -181.19016 
L 164.464959 -178.867781 
L 161.817025 -176.526981 
L 159.169091 -174.128635 
L 156.521157 -171.857495 
L 153.873223 -169.765041 
L 151.225289 -167.601331 
L 148.577355 -165.97306 
L 145.929421 -163.817044 
L 143.281488 -161.849353 
L 140.633554 -159.924941 
L 137.98562 -157.985583 
L 135.337686 -156.089269 
L 132.689752 -153.952915 
L 130.041818 -152.257281 
L 127.393884 -150.338867 
L 124.74595 -148.420452 
L 122.098017 -146.466386 
L 119.450083 -144.275849 
L 116.802149 -141.907779 
L 114.154215 -139.903232 
L 111.506281 -137.929948 
L 108.858347 -135.956665 
L 106.210413 -133.983381 
L 103.562479 -132.008212 
L 100.914545 -130.432282 
L 98.266612 -128.298258 
L 95.618678 -126.160381 
L 92.970744 -124.116961 
L 90.32281 -122.143678 
L 87.674876 -120.170394 
L 85.026942 -118.19711 
L 82.379008 -116.223826 
L 79.731074 -114.250542 
L 77.08314 -112.434283 
L 74.435207 -110.636564 
L 71.787273 -108.838844 
z
" style="stroke: #ffffff; stroke-opacity: 0.15"/>
    </defs>
    <g clip-path="url(#p3cf69ebbc5)">
     <use xlink:href="#m6f24bdad85" x="0" y="360" style="fill: #4c72b0; fill-opacity: 0.15; stroke: #ffffff; stroke-opacity: 0.15"/>
    </g>
   </g>
   <g id="line2d_10">
    <path d="M 71.787273 277.621424 
L 74.435207 275.442051 
L 77.08314 273.262678 
L 79.731074 271.083305 
L 82.379008 268.903932 
L 85.026942 266.724559 
L 87.674876 264.545186 
L 90.32281 262.365813 
L 92.970744 260.18644 
L 95.618678 258.007067 
L 98.266612 255.827694 
L 100.914545 253.648321 
L 103.562479 251.468947 
L 106.210413 249.289574 
L 108.858347 247.110201 
L 111.506281 244.930828 
L 114.154215 242.751455 
L 116.802149 240.572082 
L 119.450083 238.392709 
L 122.098017 236.213336 
L 124.74595 234.033963 
L 127.393884 231.85459 
L 130.041818 229.675217 
L 132.689752 227.495844 
L 135.337686 225.316471 
L 137.98562 223.137098 
L 140.633554 220.957724 
L 143.281488 218.778351 
L 145.929421 216.598978 
L 148.577355 214.419605 
L 151.225289 212.240232 
L 153.873223 210.060859 
L 156.521157 207.881486 
L 159.169091 205.702113 
L 161.817025 203.52274 
L 164.464959 201.343367 
L 167.112893 199.163994 
L 169.760826 196.984621 
L 172.40876 194.805248 
L 175.056694 192.625875 
L 177.704628 190.446501 
L 180.352562 188.267128 
L 183.000496 186.087755 
L 185.64843 183.908382 
L 188.296364 181.729009 
L 190.944298 179.549636 
L 193.592231 177.370263 
L 196.240165 175.19089 
L 198.888099 173.011517 
L 201.536033 170.832144 
L 204.183967 168.652771 
L 206.831901 166.473398 
L 209.479835 164.294025 
L 212.127769 162.114652 
L 214.775702 159.935278 
L 217.423636 157.755905 
L 220.07157 155.576532 
L 222.719504 153.397159 
L 225.367438 151.217786 
L 228.015372 149.038413 
L 230.663306 146.85904 
L 233.31124 144.679667 
L 235.959174 142.500294 
L 238.607107 140.320921 
L 241.255041 138.141548 
L 243.902975 135.962175 
L 246.550909 133.782802 
L 249.198843 131.603429 
L 251.846777 129.424055 
L 254.494711 127.244682 
L 257.142645 125.065309 
L 259.790579 122.885936 
L 262.438512 120.706563 
L 265.086446 118.52719 
L 267.73438 116.347817 
L 270.382314 114.168444 
L 273.030248 111.989071 
L 275.678182 109.809698 
L 278.326116 107.630325 
L 280.97405 105.450952 
L 283.621983 103.271579 
L 286.269917 101.092206 
L 288.917851 98.912833 
L 291.565785 96.733459 
L 294.213719 94.554086 
L 296.861653 92.374713 
L 299.509587 90.19534 
L 302.157521 88.015967 
L 304.805455 85.836594 
L 307.453388 83.657221 
L 310.101322 81.477848 
L 312.749256 79.298475 
L 315.39719 77.119102 
L 318.045124 74.939729 
L 320.693058 72.760356 
L 323.340992 70.580983 
L 325.988926 68.40161 
L 328.63686 66.222236 
L 331.284793 64.042863 
L 333.932727 61.86349 
" clip-path="url(#p3cf69ebbc5)" style="fill: none; stroke: #4c72b0; stroke-width: 2.25; stroke-linecap: round"/>
   </g>
   <g id="patch_3">
    <path d="M 58.68 312.66 
L 58.68 12.96 
" style="fill: none; stroke: #ffffff; stroke-width: 1.25; stroke-linejoin: miter; stroke-linecap: square"/>
   </g>
   <g id="patch_4">
    <path d="M 58.68 312.66 
L 347.04 312.66 
" style="fill: none; stroke: #ffffff; stroke-width: 1.25; stroke-linejoin: miter; stroke-linecap: square"/>
   </g>
  </g>
 </g>
 <defs>
  <clipPath id="p3cf69ebbc5">
   <rect x="58.68" y="12.96" width="288.36" height="299.7"/>
  </clipPath>
 </defs>
</svg>
