<?xml version="1.0" encoding="utf-8" standalone="no"?>
<!DOCTYPE svg PUBLIC "-//W3C//DTD SVG 1.1//EN"
  "http://www.w3.org/Graphics/SVG/1.1/DTD/svg11.dtd">
<svg xmlns:xlink="http://www.w3.org/1999/xlink" width="360pt" height="360pt" viewBox="0 0 360 360" xmlns="http://www.w3.org/2000/svg" version="1.1">
 <metadata>
  <rdf:RDF xmlns:dc="http://purl.org/dc/elements/1.1/" xmlns:cc="http://creativecommons.org/ns#" xmlns:rdf="http://www.w3.org/1999/02/22-rdf-syntax-ns#">
   <cc:Work>
    <dc:type rdf:resource="http://purl.org/dc/dcmitype/StillImage"/>
    <dc:date>2023-07-08T20:21:13.461144</dc:date>
    <dc:format>image/svg+xml</dc:format>
    <dc:creator>
     <cc:Agent>
      <dc:title>Matplotlib v3.5.3, https://matplotlib.org/</dc:title>
     </cc:Agent>
    </dc:creator>
   </cc:Work>
  </rdf:RDF>
 </metadata>
 <defs>
  <style type="text/css">*{stroke-linejoin: round; stroke-linecap: butt}</style>
 </defs>
 <g id="figure_1">
  <g id="patch_1">
   <path d="M 0 360 
L 360 360 
L 360 0 
L 0 0 
z
" style="fill: #ffffff"/>
  </g>
  <g id="axes_1">
   <g id="patch_2">
    <path d="M 58.68 312.66 
L 347.04 312.66 
L 347.04 12.96 
L 58.68 12.96 
z
" style="fill: #eaeaf2"/>
   </g>
   <g id="matplotlib.axis_1">
    <g id="xtick_1">
     <g id="line2d_1">
      <path d="M 105.432848 312.66 
L 105.432848 12.96 
" clip-path="url(#pf037b8e943)" style="fill: none; stroke: #ffffff; stroke-linecap: round"/>
     </g>
     <g id="text_1">
      <!-- 0.45 -->
      <g style="fill: #262626" transform="translate(94.729332 330.033594)scale(0.11 -0.11)">
       <defs>
        <path id="ArialMT-30" d="M 266 2259 
Q 266 3072 433 3567 
Q 600 4063 929 4331 
Q 1259 4600 1759 4600 
Q 2128 4600 2406 4451 
Q 2684 4303 2865 4023 
Q 3047 3744 3150 3342 
Q 3253 2941 3253 2259 
Q 3253 1453 3087 958 
Q 2922 463 2592 192 
Q 2263 -78 1759 -78 
Q 1097 -78 719 397 
Q 266 969 266 2259 
z
M 844 2259 
Q 844 1131 1108 757 
Q 1372 384 1759 384 
Q 2147 384 2411 759 
Q 2675 1134 2675 2259 
Q 2675 3391 2411 3762 
Q 2147 4134 1753 4134 
Q 1366 4134 1134 3806 
Q 844 3388 844 2259 
z
" transform="scale(0.015625)"/>
        <path id="ArialMT-2e" d="M 581 0 
L 581 641 
L 1222 641 
L 1222 0 
L 581 0 
z
" transform="scale(0.015625)"/>
        <path id="ArialMT-34" d="M 2069 0 
L 2069 1097 
L 81 1097 
L 81 1613 
L 2172 4581 
L 2631 4581 
L 2631 1613 
L 3250 1613 
L 3250 1097 
L 2631 1097 
L 2631 0 
L 2069 0 
z
M 2069 1613 
L 2069 3678 
L 634 1613 
L 2069 1613 
z
" transform="scale(0.015625)"/>
        <path id="ArialMT-35" d="M 266 1200 
L 856 1250 
Q 922 819 1161 601 
Q 1400 384 1738 384 
Q 2144 384 2425 690 
Q 2706 997 2706 1503 
Q 2706 1984 2436 2262 
Q 2166 2541 1728 2541 
Q 1456 2541 1237 2417 
Q 1019 2294 894 2097 
L 366 2166 
L 809 4519 
L 3088 4519 
L 3088 3981 
L 1259 3981 
L 1013 2750 
Q 1425 3038 1878 3038 
Q 2478 3038 2890 2622 
Q 3303 2206 3303 1553 
Q 3303 931 2941 478 
Q 2500 -78 1738 -78 
Q 1113 -78 717 272 
Q 322 622 266 1200 
z
" transform="scale(0.015625)"/>
       </defs>
       <use xlink:href="#ArialMT-30"/>
       <use xlink:href="#ArialMT-2e" x="55.615234"/>
       <use xlink:href="#ArialMT-34" x="83.398438"/>
       <use xlink:href="#ArialMT-35" x="139.013672"/>
      </g>
     </g>
    </g>
    <g id="xtick_2">
     <g id="line2d_2">
      <path d="M 162.109907 312.66 
L 162.109907 12.96 
" clip-path="url(#pf037b8e943)" style="fill: none; stroke: #ffffff; stroke-linecap: round"/>
     </g>
     <g id="text_2">
      <!-- 0.50 -->
      <g style="fill: #262626" transform="translate(151.406391 330.033594)scale(0.11 -0.11)">
       <use xlink:href="#ArialMT-30"/>
       <use xlink:href="#ArialMT-2e" x="55.615234"/>
       <use xlink:href="#ArialMT-35" x="83.398438"/>
       <use xlink:href="#ArialMT-30" x="139.013672"/>
      </g>
     </g>
    </g>
    <g id="xtick_3">
     <g id="line2d_3">
      <path d="M 218.786966 312.66 
L 218.786966 12.96 
" clip-path="url(#pf037b8e943)" style="fill: none; stroke: #ffffff; stroke-linecap: round"/>
     </g>
     <g id="text_3">
      <!-- 0.55 -->
      <g style="fill: #262626" transform="translate(208.08345 330.033594)scale(0.11 -0.11)">
       <use xlink:href="#ArialMT-30"/>
       <use xlink:href="#ArialMT-2e" x="55.615234"/>
       <use xlink:href="#ArialMT-35" x="83.398438"/>
       <use xlink:href="#ArialMT-35" x="139.013672"/>
      </g>
     </g>
    </g>
    <g id="xtick_4">
     <g id="line2d_4">
      <path d="M 275.464025 312.66 
L 275.464025 12.96 
" clip-path="url(#pf037b8e943)" style="fill: none; stroke: #ffffff; stroke-linecap: round"/>
     </g>
     <g id="text_4">
      <!-- 0.60 -->
      <g style="fill: #262626" transform="translate(264.760509 330.033594)scale(0.11 -0.11)">
       <defs>
        <path id="ArialMT-36" d="M 3184 3459 
L 2625 3416 
Q 2550 3747 2413 3897 
Q 2184 4138 1850 4138 
Q 1581 4138 1378 3988 
Q 1113 3794 959 3422 
Q 806 3050 800 2363 
Q 1003 2672 1297 2822 
Q 1591 2972 1913 2972 
Q 2475 2972 2870 2558 
Q 3266 2144 3266 1488 
Q 3266 1056 3080 686 
Q 2894 316 2569 119 
Q 2244 -78 1831 -78 
Q 1128 -78 684 439 
Q 241 956 241 2144 
Q 241 3472 731 4075 
Q 1159 4600 1884 4600 
Q 2425 4600 2770 4297 
Q 3116 3994 3184 3459 
z
M 888 1484 
Q 888 1194 1011 928 
Q 1134 663 1356 523 
Q 1578 384 1822 384 
Q 2178 384 2434 671 
Q 2691 959 2691 1453 
Q 2691 1928 2437 2201 
Q 2184 2475 1800 2475 
Q 1419 2475 1153 2201 
Q 888 1928 888 1484 
z
" transform="scale(0.015625)"/>
       </defs>
       <use xlink:href="#ArialMT-30"/>
       <use xlink:href="#ArialMT-2e" x="55.615234"/>
       <use xlink:href="#ArialMT-36" x="83.398438"/>
       <use xlink:href="#ArialMT-30" x="139.013672"/>
      </g>
     </g>
    </g>
    <g id="xtick_5">
     <g id="line2d_5">
      <path d="M 332.141084 312.66 
L 332.141084 12.96 
" clip-path="url(#pf037b8e943)" style="fill: none; stroke: #ffffff; stroke-linecap: round"/>
     </g>
     <g id="text_5">
      <!-- 0.65 -->
      <g style="fill: #262626" transform="translate(321.437569 330.033594)scale(0.11 -0.11)">
       <use xlink:href="#ArialMT-30"/>
       <use xlink:href="#ArialMT-2e" x="55.615234"/>
       <use xlink:href="#ArialMT-36" x="83.398438"/>
       <use xlink:href="#ArialMT-35" x="139.013672"/>
      </g>
     </g>
    </g>
    <g id="text_6">
     <!-- CETTR -->
     <g style="fill: #262626" transform="translate(182.862187 344.809219)scale(0.12 -0.12)">
      <defs>
       <path id="ArialMT-43" d="M 3763 1606 
L 4369 1453 
Q 4178 706 3683 314 
Q 3188 -78 2472 -78 
Q 1731 -78 1267 223 
Q 803 525 561 1097 
Q 319 1669 319 2325 
Q 319 3041 592 3573 
Q 866 4106 1370 4382 
Q 1875 4659 2481 4659 
Q 3169 4659 3637 4309 
Q 4106 3959 4291 3325 
L 3694 3184 
Q 3534 3684 3231 3912 
Q 2928 4141 2469 4141 
Q 1941 4141 1586 3887 
Q 1231 3634 1087 3207 
Q 944 2781 944 2328 
Q 944 1744 1114 1308 
Q 1284 872 1643 656 
Q 2003 441 2422 441 
Q 2931 441 3284 734 
Q 3638 1028 3763 1606 
z
" transform="scale(0.015625)"/>
       <path id="ArialMT-45" d="M 506 0 
L 506 4581 
L 3819 4581 
L 3819 4041 
L 1113 4041 
L 1113 2638 
L 3647 2638 
L 3647 2100 
L 1113 2100 
L 1113 541 
L 3925 541 
L 3925 0 
L 506 0 
z
" transform="scale(0.015625)"/>
       <path id="ArialMT-54" d="M 1659 0 
L 1659 4041 
L 150 4041 
L 150 4581 
L 3781 4581 
L 3781 4041 
L 2266 4041 
L 2266 0 
L 1659 0 
z
" transform="scale(0.015625)"/>
       <path id="ArialMT-52" d="M 503 0 
L 503 4581 
L 2534 4581 
Q 3147 4581 3465 4457 
Q 3784 4334 3975 4021 
Q 4166 3709 4166 3331 
Q 4166 2844 3850 2509 
Q 3534 2175 2875 2084 
Q 3116 1969 3241 1856 
Q 3506 1613 3744 1247 
L 4541 0 
L 3778 0 
L 3172 953 
Q 2906 1366 2734 1584 
Q 2563 1803 2427 1890 
Q 2291 1978 2150 2013 
Q 2047 2034 1813 2034 
L 1109 2034 
L 1109 0 
L 503 0 
z
M 1109 2559 
L 2413 2559 
Q 2828 2559 3062 2645 
Q 3297 2731 3419 2920 
Q 3541 3109 3541 3331 
Q 3541 3656 3305 3865 
Q 3069 4075 2559 4075 
L 1109 4075 
L 1109 2559 
z
" transform="scale(0.015625)"/>
      </defs>
      <use xlink:href="#ArialMT-43"/>
      <use xlink:href="#ArialMT-45" x="72.216797"/>
      <use xlink:href="#ArialMT-54" x="138.916016"/>
      <use xlink:href="#ArialMT-54" x="200"/>
      <use xlink:href="#ArialMT-52" x="261.083984"/>
     </g>
    </g>
   </g>
   <g id="matplotlib.axis_2">
    <g id="ytick_1">
     <g id="line2d_6">
      <path d="M 58.68 298.402134 
L 347.04 298.402134 
" clip-path="url(#pf037b8e943)" style="fill: none; stroke: #ffffff; stroke-linecap: round"/>
     </g>
     <g id="text_7">
      <!-- 0.50 -->
      <g style="fill: #262626" transform="translate(27.772969 302.338931)scale(0.11 -0.11)">
       <use xlink:href="#ArialMT-30"/>
       <use xlink:href="#ArialMT-2e" x="55.615234"/>
       <use xlink:href="#ArialMT-35" x="83.398438"/>
       <use xlink:href="#ArialMT-30" x="139.013672"/>
      </g>
     </g>
    </g>
    <g id="ytick_2">
     <g id="line2d_7">
      <path d="M 58.68 241.107197 
L 347.04 241.107197 
" clip-path="url(#pf037b8e943)" style="fill: none; stroke: #ffffff; stroke-linecap: round"/>
     </g>
     <g id="text_8">
      <!-- 0.52 -->
      <g style="fill: #262626" transform="translate(27.772969 245.043994)scale(0.11 -0.11)">
       <defs>
        <path id="ArialMT-32" d="M 3222 541 
L 3222 0 
L 194 0 
Q 188 203 259 391 
Q 375 700 629 1000 
Q 884 1300 1366 1694 
Q 2113 2306 2375 2664 
Q 2638 3022 2638 3341 
Q 2638 3675 2398 3904 
Q 2159 4134 1775 4134 
Q 1369 4134 1125 3890 
Q 881 3647 878 3216 
L 300 3275 
Q 359 3922 746 4261 
Q 1134 4600 1788 4600 
Q 2447 4600 2831 4234 
Q 3216 3869 3216 3328 
Q 3216 3053 3103 2787 
Q 2991 2522 2730 2228 
Q 2469 1934 1863 1422 
Q 1356 997 1212 845 
Q 1069 694 975 541 
L 3222 541 
z
" transform="scale(0.015625)"/>
       </defs>
       <use xlink:href="#ArialMT-30"/>
       <use xlink:href="#ArialMT-2e" x="55.615234"/>
       <use xlink:href="#ArialMT-35" x="83.398438"/>
       <use xlink:href="#ArialMT-32" x="139.013672"/>
      </g>
     </g>
    </g>
    <g id="ytick_3">
     <g id="line2d_8">
      <path d="M 58.68 183.812261 
L 347.04 183.812261 
" clip-path="url(#pf037b8e943)" style="fill: none; stroke: #ffffff; stroke-linecap: round"/>
     </g>
     <g id="text_9">
      <!-- 0.54 -->
      <g style="fill: #262626" transform="translate(27.772969 187.749057)scale(0.11 -0.11)">
       <use xlink:href="#ArialMT-30"/>
       <use xlink:href="#ArialMT-2e" x="55.615234"/>
       <use xlink:href="#ArialMT-35" x="83.398438"/>
       <use xlink:href="#ArialMT-34" x="139.013672"/>
      </g>
     </g>
    </g>
    <g id="ytick_4">
     <g id="line2d_9">
      <path d="M 58.68 126.517324 
L 347.04 126.517324 
" clip-path="url(#pf037b8e943)" style="fill: none; stroke: #ffffff; stroke-linecap: round"/>
     </g>
     <g id="text_10">
      <!-- 0.56 -->
      <g style="fill: #262626" transform="translate(27.772969 130.454121)scale(0.11 -0.11)">
       <use xlink:href="#ArialMT-30"/>
       <use xlink:href="#ArialMT-2e" x="55.615234"/>
       <use xlink:href="#ArialMT-35" x="83.398438"/>
       <use xlink:href="#ArialMT-36" x="139.013672"/>
      </g>
     </g>
    </g>
    <g id="ytick_5">
     <g id="line2d_10">
      <path d="M 58.68 69.222387 
L 347.04 69.222387 
" clip-path="url(#pf037b8e943)" style="fill: none; stroke: #ffffff; stroke-linecap: round"/>
     </g>
     <g id="text_11">
      <!-- 0.58 -->
      <g style="fill: #262626" transform="translate(27.772969 73.159184)scale(0.11 -0.11)">
       <defs>
        <path id="ArialMT-38" d="M 1131 2484 
Q 781 2613 612 2850 
Q 444 3088 444 3419 
Q 444 3919 803 4259 
Q 1163 4600 1759 4600 
Q 2359 4600 2725 4251 
Q 3091 3903 3091 3403 
Q 3091 3084 2923 2848 
Q 2756 2613 2416 2484 
Q 2838 2347 3058 2040 
Q 3278 1734 3278 1309 
Q 3278 722 2862 322 
Q 2447 -78 1769 -78 
Q 1091 -78 675 323 
Q 259 725 259 1325 
Q 259 1772 486 2073 
Q 713 2375 1131 2484 
z
M 1019 3438 
Q 1019 3113 1228 2906 
Q 1438 2700 1772 2700 
Q 2097 2700 2305 2904 
Q 2513 3109 2513 3406 
Q 2513 3716 2298 3927 
Q 2084 4138 1766 4138 
Q 1444 4138 1231 3931 
Q 1019 3725 1019 3438 
z
M 838 1322 
Q 838 1081 952 856 
Q 1066 631 1291 507 
Q 1516 384 1775 384 
Q 2178 384 2440 643 
Q 2703 903 2703 1303 
Q 2703 1709 2433 1975 
Q 2163 2241 1756 2241 
Q 1359 2241 1098 1978 
Q 838 1716 838 1322 
z
" transform="scale(0.015625)"/>
       </defs>
       <use xlink:href="#ArialMT-30"/>
       <use xlink:href="#ArialMT-2e" x="55.615234"/>
       <use xlink:href="#ArialMT-35" x="83.398438"/>
       <use xlink:href="#ArialMT-38" x="139.013672"/>
      </g>
     </g>
    </g>
    <g id="text_12">
     <!-- F1 Score -->
     <g style="fill: #262626" transform="translate(21.387969 187.15125)rotate(-90)scale(0.12 -0.12)">
      <defs>
       <path id="ArialMT-46" d="M 525 0 
L 525 4581 
L 3616 4581 
L 3616 4041 
L 1131 4041 
L 1131 2622 
L 3281 2622 
L 3281 2081 
L 1131 2081 
L 1131 0 
L 525 0 
z
" transform="scale(0.015625)"/>
       <path id="ArialMT-31" d="M 2384 0 
L 1822 0 
L 1822 3584 
Q 1619 3391 1289 3197 
Q 959 3003 697 2906 
L 697 3450 
Q 1169 3672 1522 3987 
Q 1875 4303 2022 4600 
L 2384 4600 
L 2384 0 
z
" transform="scale(0.015625)"/>
       <path id="ArialMT-20" transform="scale(0.015625)"/>
       <path id="ArialMT-53" d="M 288 1472 
L 859 1522 
Q 900 1178 1048 958 
Q 1197 738 1509 602 
Q 1822 466 2213 466 
Q 2559 466 2825 569 
Q 3091 672 3220 851 
Q 3350 1031 3350 1244 
Q 3350 1459 3225 1620 
Q 3100 1781 2813 1891 
Q 2628 1963 1997 2114 
Q 1366 2266 1113 2400 
Q 784 2572 623 2826 
Q 463 3081 463 3397 
Q 463 3744 659 4045 
Q 856 4347 1234 4503 
Q 1613 4659 2075 4659 
Q 2584 4659 2973 4495 
Q 3363 4331 3572 4012 
Q 3781 3694 3797 3291 
L 3216 3247 
Q 3169 3681 2898 3903 
Q 2628 4125 2100 4125 
Q 1550 4125 1298 3923 
Q 1047 3722 1047 3438 
Q 1047 3191 1225 3031 
Q 1400 2872 2139 2705 
Q 2878 2538 3153 2413 
Q 3553 2228 3743 1945 
Q 3934 1663 3934 1294 
Q 3934 928 3725 604 
Q 3516 281 3123 101 
Q 2731 -78 2241 -78 
Q 1619 -78 1198 103 
Q 778 284 539 648 
Q 300 1013 288 1472 
z
" transform="scale(0.015625)"/>
       <path id="ArialMT-63" d="M 2588 1216 
L 3141 1144 
Q 3050 572 2676 248 
Q 2303 -75 1759 -75 
Q 1078 -75 664 370 
Q 250 816 250 1647 
Q 250 2184 428 2587 
Q 606 2991 970 3192 
Q 1334 3394 1763 3394 
Q 2303 3394 2647 3120 
Q 2991 2847 3088 2344 
L 2541 2259 
Q 2463 2594 2264 2762 
Q 2066 2931 1784 2931 
Q 1359 2931 1093 2626 
Q 828 2322 828 1663 
Q 828 994 1084 691 
Q 1341 388 1753 388 
Q 2084 388 2306 591 
Q 2528 794 2588 1216 
z
" transform="scale(0.015625)"/>
       <path id="ArialMT-6f" d="M 213 1659 
Q 213 2581 725 3025 
Q 1153 3394 1769 3394 
Q 2453 3394 2887 2945 
Q 3322 2497 3322 1706 
Q 3322 1066 3130 698 
Q 2938 331 2570 128 
Q 2203 -75 1769 -75 
Q 1072 -75 642 372 
Q 213 819 213 1659 
z
M 791 1659 
Q 791 1022 1069 705 
Q 1347 388 1769 388 
Q 2188 388 2466 706 
Q 2744 1025 2744 1678 
Q 2744 2294 2464 2611 
Q 2184 2928 1769 2928 
Q 1347 2928 1069 2612 
Q 791 2297 791 1659 
z
" transform="scale(0.015625)"/>
       <path id="ArialMT-72" d="M 416 0 
L 416 3319 
L 922 3319 
L 922 2816 
Q 1116 3169 1280 3281 
Q 1444 3394 1641 3394 
Q 1925 3394 2219 3213 
L 2025 2691 
Q 1819 2813 1613 2813 
Q 1428 2813 1281 2702 
Q 1134 2591 1072 2394 
Q 978 2094 978 1738 
L 978 0 
L 416 0 
z
" transform="scale(0.015625)"/>
       <path id="ArialMT-65" d="M 2694 1069 
L 3275 997 
Q 3138 488 2766 206 
Q 2394 -75 1816 -75 
Q 1088 -75 661 373 
Q 234 822 234 1631 
Q 234 2469 665 2931 
Q 1097 3394 1784 3394 
Q 2450 3394 2872 2941 
Q 3294 2488 3294 1666 
Q 3294 1616 3291 1516 
L 816 1516 
Q 847 969 1125 678 
Q 1403 388 1819 388 
Q 2128 388 2347 550 
Q 2566 713 2694 1069 
z
M 847 1978 
L 2700 1978 
Q 2663 2397 2488 2606 
Q 2219 2931 1791 2931 
Q 1403 2931 1139 2672 
Q 875 2413 847 1978 
z
" transform="scale(0.015625)"/>
      </defs>
      <use xlink:href="#ArialMT-46"/>
      <use xlink:href="#ArialMT-31" x="61.083984"/>
      <use xlink:href="#ArialMT-20" x="116.699219"/>
      <use xlink:href="#ArialMT-53" x="144.482422"/>
      <use xlink:href="#ArialMT-63" x="211.181641"/>
      <use xlink:href="#ArialMT-6f" x="261.181641"/>
      <use xlink:href="#ArialMT-72" x="316.796875"/>
      <use xlink:href="#ArialMT-65" x="350.097656"/>
     </g>
    </g>
   </g>
   <g id="PathCollection_1">
    <defs>
     <path id="macc206f262" d="M 0 3 
C 0.795609 3 1.55874 2.683901 2.12132 2.12132 
C 2.683901 1.55874 3 0.795609 3 0 
C 3 -0.795609 2.683901 -1.55874 2.12132 -2.12132 
C 1.55874 -2.683901 0.795609 -3 0 -3 
C -0.795609 -3 -1.55874 -2.683901 -2.12132 -2.12132 
C -2.683901 -1.55874 -3 -0.795609 -3 0 
C -3 0.795609 -2.683901 1.55874 -2.12132 2.12132 
C -1.55874 2.683901 -0.795609 3 0 3 
z
" style="stroke: #4c72b0; stroke-opacity: 0.8"/>
    </defs>
    <g clip-path="url(#pf037b8e943)">
     <use xlink:href="#macc206f262" x="71.787273" y="82.548734" style="fill: #4c72b0; fill-opacity: 0.8; stroke: #4c72b0; stroke-opacity: 0.8"/>
     <use xlink:href="#macc206f262" x="87.058474" y="52.060687" style="fill: #4c72b0; fill-opacity: 0.8; stroke: #4c72b0; stroke-opacity: 0.8"/>
     <use xlink:href="#macc206f262" x="110.486414" y="83.022705" style="fill: #4c72b0; fill-opacity: 0.8; stroke: #4c72b0; stroke-opacity: 0.8"/>
     <use xlink:href="#macc206f262" x="125.8982" y="146.490156" style="fill: #4c72b0; fill-opacity: 0.8; stroke: #4c72b0; stroke-opacity: 0.8"/>
     <use xlink:href="#macc206f262" x="146.939676" y="233.9469" style="fill: #4c72b0; fill-opacity: 0.8; stroke: #4c72b0; stroke-opacity: 0.8"/>
     <use xlink:href="#macc206f262" x="162.33391" y="126.859651" style="fill: #4c72b0; fill-opacity: 0.8; stroke: #4c72b0; stroke-opacity: 0.8"/>
     <use xlink:href="#macc206f262" x="177.86226" y="109.082304" style="fill: #4c72b0; fill-opacity: 0.8; stroke: #4c72b0; stroke-opacity: 0.8"/>
     <use xlink:href="#macc206f262" x="198.778958" y="140.679668" style="fill: #4c72b0; fill-opacity: 0.8; stroke: #4c72b0; stroke-opacity: 0.8"/>
     <use xlink:href="#macc206f262" x="208.423634" y="198.773811" style="fill: #4c72b0; fill-opacity: 0.8; stroke: #4c72b0; stroke-opacity: 0.8"/>
     <use xlink:href="#macc206f262" x="229.681949" y="148.742021" style="fill: #4c72b0; fill-opacity: 0.8; stroke: #4c72b0; stroke-opacity: 0.8"/>
     <use xlink:href="#macc206f262" x="239.93212" y="69.765458" style="fill: #4c72b0; fill-opacity: 0.8; stroke: #4c72b0; stroke-opacity: 0.8"/>
     <use xlink:href="#macc206f262" x="255.854778" y="264.024239" style="fill: #4c72b0; fill-opacity: 0.8; stroke: #4c72b0; stroke-opacity: 0.8"/>
     <use xlink:href="#macc206f262" x="269.617915" y="231.867597" style="fill: #4c72b0; fill-opacity: 0.8; stroke: #4c72b0; stroke-opacity: 0.8"/>
     <use xlink:href="#macc206f262" x="280.664284" y="230.811112" style="fill: #4c72b0; fill-opacity: 0.8; stroke: #4c72b0; stroke-opacity: 0.8"/>
     <use xlink:href="#macc206f262" x="286.375993" y="263.678965" style="fill: #4c72b0; fill-opacity: 0.8; stroke: #4c72b0; stroke-opacity: 0.8"/>
     <use xlink:href="#macc206f262" x="303.104626" y="271.923698" style="fill: #4c72b0; fill-opacity: 0.8; stroke: #4c72b0; stroke-opacity: 0.8"/>
     <use xlink:href="#macc206f262" x="307.344774" y="273.105834" style="fill: #4c72b0; fill-opacity: 0.8; stroke: #4c72b0; stroke-opacity: 0.8"/>
     <use xlink:href="#macc206f262" x="319.024155" y="289.178973" style="fill: #4c72b0; fill-opacity: 0.8; stroke: #4c72b0; stroke-opacity: 0.8"/>
     <use xlink:href="#macc206f262" x="324.687721" y="269.069856" style="fill: #4c72b0; fill-opacity: 0.8; stroke: #4c72b0; stroke-opacity: 0.8"/>
     <use xlink:href="#macc206f262" x="333.932727" y="285.814771" style="fill: #4c72b0; fill-opacity: 0.8; stroke: #4c72b0; stroke-opacity: 0.8"/>
    </g>
   </g>
   <g id="PolyCollection_1">
    <defs>
     <path id="mfe89d87231" d="M 71.787273 -333.417273 
L 71.787273 -254.124623 
L 74.435207 -252.47853 
L 77.08314 -250.832436 
L 79.731074 -249.186343 
L 82.379008 -247.540249 
L 85.026942 -245.753304 
L 87.674876 -244.091768 
L 90.32281 -242.430232 
L 92.970744 -240.768696 
L 95.618678 -239.107525 
L 98.266612 -237.381268 
L 100.914545 -235.591641 
L 103.562479 -233.802014 
L 106.210413 -232.012386 
L 108.858347 -230.199749 
L 111.506281 -228.334669 
L 114.154215 -226.469589 
L 116.802149 -224.607315 
L 119.450083 -222.74668 
L 122.098017 -221.130655 
L 124.74595 -219.486998 
L 127.393884 -217.602107 
L 130.041818 -215.696462 
L 132.689752 -213.790818 
L 135.337686 -211.976667 
L 137.98562 -210.065005 
L 140.633554 -208.112251 
L 143.281488 -206.159496 
L 145.929421 -204.242066 
L 148.577355 -202.331026 
L 151.225289 -200.42073 
L 153.873223 -198.673461 
L 156.521157 -197.021301 
L 159.169091 -195.168376 
L 161.817025 -193.305573 
L 164.464959 -191.397286 
L 167.112893 -189.598142 
L 169.760826 -187.825391 
L 172.40876 -186.058437 
L 175.056694 -184.355041 
L 177.704628 -182.718063 
L 180.352562 -180.809699 
L 183.000496 -178.974163 
L 185.64843 -177.09059 
L 188.296364 -174.986447 
L 190.944298 -173.058937 
L 193.592231 -171.304633 
L 196.240165 -169.366583 
L 198.888099 -167.428532 
L 201.536033 -165.490482 
L 204.183967 -163.552431 
L 206.831901 -161.624577 
L 209.479835 -160.175351 
L 212.127769 -158.23364 
L 214.775702 -156.293636 
L 217.423636 -154.523085 
L 220.07157 -152.815377 
L 222.719504 -150.917883 
L 225.367438 -149.01649 
L 228.015372 -147.115096 
L 230.663306 -144.905488 
L 233.31124 -142.409026 
L 235.959174 -140.535426 
L 238.607107 -138.665363 
L 241.255041 -136.795299 
L 243.902975 -134.934468 
L 246.550909 -133.309758 
L 249.198843 -131.256825 
L 251.846777 -129.32254 
L 254.494711 -127.359449 
L 257.142645 -125.506557 
L 259.790579 -123.323133 
L 262.438512 -121.102177 
L 265.086446 -119.002421 
L 267.73438 -117.037013 
L 270.382314 -115.128372 
L 273.030248 -113.086331 
L 275.678182 -110.791717 
L 278.326116 -108.776606 
L 280.97405 -106.905812 
L 283.621983 -104.754887 
L 286.269917 -102.631166 
L 288.917851 -100.446121 
L 291.565785 -98.138827 
L 294.213719 -95.745751 
L 296.861653 -93.362546 
L 299.509587 -91.14014 
L 302.157521 -88.923022 
L 304.805455 -86.961647 
L 307.453388 -84.676061 
L 310.101322 -82.569875 
L 312.749256 -80.346811 
L 315.39719 -77.780774 
L 318.045124 -75.582447 
L 320.693058 -73.265305 
L 323.340992 -70.812936 
L 325.988926 -68.273679 
L 328.63686 -65.951931 
L 331.284793 -63.543951 
L 333.932727 -60.962727 
L 333.932727 -111.118422 
L 333.932727 -111.118422 
L 331.284793 -112.779587 
L 328.63686 -114.429431 
L 325.988926 -116.074795 
L 323.340992 -117.7428 
L 320.693058 -119.854004 
L 318.045124 -121.923356 
L 315.39719 -123.545143 
L 312.749256 -125.296208 
L 310.101322 -127.041849 
L 307.453388 -128.401674 
L 304.805455 -130.219857 
L 302.157521 -131.969173 
L 299.509587 -133.568632 
L 296.861653 -135.168091 
L 294.213719 -136.780288 
L 291.565785 -138.521093 
L 288.917851 -140.255714 
L 286.269917 -142.011511 
L 283.621983 -143.86925 
L 280.97405 -145.851711 
L 278.326116 -147.857449 
L 275.678182 -149.74944 
L 273.030248 -151.597929 
L 270.382314 -153.457907 
L 267.73438 -155.31713 
L 265.086446 -157.895183 
L 262.438512 -159.85881 
L 259.790579 -162.567532 
L 257.142645 -164.807845 
L 254.494711 -166.932115 
L 251.846777 -169.172661 
L 249.198843 -171.167458 
L 246.550909 -173.277055 
L 243.902975 -175.393484 
L 241.255041 -177.510392 
L 238.607107 -179.536539 
L 235.959174 -181.721567 
L 233.31124 -183.866041 
L 230.663306 -185.844898 
L 228.015372 -188.100693 
L 225.367438 -189.995061 
L 222.719504 -191.815985 
L 220.07157 -194.385451 
L 217.423636 -196.578408 
L 214.775702 -198.995 
L 212.127769 -200.921969 
L 209.479835 -203.379478 
L 206.831901 -205.877172 
L 204.183967 -207.966681 
L 201.536033 -210.550027 
L 198.888099 -213.126281 
L 196.240165 -215.713298 
L 193.592231 -218.046776 
L 190.944298 -220.302793 
L 188.296364 -223.039538 
L 185.64843 -225.308263 
L 183.000496 -227.568199 
L 180.352562 -229.885762 
L 177.704628 -232.357319 
L 175.056694 -234.461457 
L 172.40876 -237.088397 
L 169.760826 -239.486759 
L 167.112893 -242.369118 
L 164.464959 -245.150228 
L 161.817025 -246.92046 
L 159.169091 -249.381822 
L 156.521157 -251.724907 
L 153.873223 -254.209308 
L 151.225289 -256.660168 
L 148.577355 -259.195332 
L 145.929421 -261.691649 
L 143.281488 -264.187966 
L 140.633554 -266.684283 
L 137.98562 -269.1806 
L 135.337686 -271.676917 
L 132.689752 -274.173233 
L 130.041818 -276.66955 
L 127.393884 -279.229113 
L 124.74595 -281.81067 
L 122.098017 -284.386845 
L 119.450083 -286.963019 
L 116.802149 -289.539194 
L 114.154215 -292.115369 
L 111.506281 -294.691543 
L 108.858347 -297.267718 
L 106.210413 -299.668511 
L 103.562479 -302.153544 
L 100.914545 -304.771203 
L 98.266612 -307.388862 
L 95.618678 -310.006521 
L 92.970744 -312.62418 
L 90.32281 -315.223162 
L 87.674876 -317.730783 
L 85.026942 -320.399504 
L 82.379008 -323.067991 
L 79.731074 -325.668785 
L 77.08314 -328.251614 
L 74.435207 -330.834443 
L 71.787273 -333.417273 
z
" style="stroke: #ffffff; stroke-opacity: 0.15"/>
    </defs>
    <g clip-path="url(#pf037b8e943)">
     <use xlink:href="#mfe89d87231" x="0" y="360" style="fill: #4c72b0; fill-opacity: 0.15; stroke: #ffffff; stroke-opacity: 0.15"/>
    </g>
   </g>
   <g id="line2d_11">
    <path d="M 71.787273 66.512788 
L 74.435207 68.664592 
L 77.08314 70.816395 
L 79.731074 72.968199 
L 82.379008 75.120002 
L 85.026942 77.271806 
L 87.674876 79.42361 
L 90.32281 81.575413 
L 92.970744 83.727217 
L 95.618678 85.87902 
L 98.266612 88.030824 
L 100.914545 90.182627 
L 103.562479 92.334431 
L 106.210413 94.486234 
L 108.858347 96.638038 
L 111.506281 98.789841 
L 114.154215 100.941645 
L 116.802149 103.093449 
L 119.450083 105.245252 
L 122.098017 107.397056 
L 124.74595 109.548859 
L 127.393884 111.700663 
L 130.041818 113.852466 
L 132.689752 116.00427 
L 135.337686 118.156073 
L 137.98562 120.307877 
L 140.633554 122.45968 
L 143.281488 124.611484 
L 145.929421 126.763288 
L 148.577355 128.915091 
L 151.225289 131.066895 
L 153.873223 133.218698 
L 156.521157 135.370502 
L 159.169091 137.522305 
L 161.817025 139.674109 
L 164.464959 141.825912 
L 167.112893 143.977716 
L 169.760826 146.129519 
L 172.40876 148.281323 
L 175.056694 150.433127 
L 177.704628 152.58493 
L 180.352562 154.736734 
L 183.000496 156.888537 
L 185.64843 159.040341 
L 188.296364 161.192144 
L 190.944298 163.343948 
L 193.592231 165.495751 
L 196.240165 167.647555 
L 198.888099 169.799358 
L 201.536033 171.951162 
L 204.183967 174.102966 
L 206.831901 176.254769 
L 209.479835 178.406573 
L 212.127769 180.558376 
L 214.775702 182.71018 
L 217.423636 184.861983 
L 220.07157 187.013787 
L 222.719504 189.16559 
L 225.367438 191.317394 
L 228.015372 193.469197 
L 230.663306 195.621001 
L 233.31124 197.772805 
L 235.959174 199.924608 
L 238.607107 202.076412 
L 241.255041 204.228215 
L 243.902975 206.380019 
L 246.550909 208.531822 
L 249.198843 210.683626 
L 251.846777 212.835429 
L 254.494711 214.987233 
L 257.142645 217.139036 
L 259.790579 219.29084 
L 262.438512 221.442644 
L 265.086446 223.594447 
L 267.73438 225.746251 
L 270.382314 227.898054 
L 273.030248 230.049858 
L 275.678182 232.201661 
L 278.326116 234.353465 
L 280.97405 236.505268 
L 283.621983 238.657072 
L 286.269917 240.808875 
L 288.917851 242.960679 
L 291.565785 245.112483 
L 294.213719 247.264286 
L 296.861653 249.41609 
L 299.509587 251.567893 
L 302.157521 253.719697 
L 304.805455 255.8715 
L 307.453388 258.023304 
L 310.101322 260.175107 
L 312.749256 262.326911 
L 315.39719 264.478714 
L 318.045124 266.630518 
L 320.693058 268.782322 
L 323.340992 270.934125 
L 325.988926 273.085929 
L 328.63686 275.237732 
L 331.284793 277.389536 
L 333.932727 279.541339 
" clip-path="url(#pf037b8e943)" style="fill: none; stroke: #4c72b0; stroke-width: 2.25; stroke-linecap: round"/>
   </g>
   <g id="patch_3">
    <path d="M 58.68 312.66 
L 58.68 12.96 
" style="fill: none; stroke: #ffffff; stroke-width: 1.25; stroke-linejoin: miter; stroke-linecap: square"/>
   </g>
   <g id="patch_4">
    <path d="M 58.68 312.66 
L 347.04 312.66 
" style="fill: none; stroke: #ffffff; stroke-width: 1.25; stroke-linejoin: miter; stroke-linecap: square"/>
   </g>
  </g>
 </g>
 <defs>
  <clipPath id="pf037b8e943">
   <rect x="58.68" y="12.96" width="288.36" height="299.7"/>
  </clipPath>
 </defs>
</svg>
