<?xml version="1.0" encoding="utf-8" standalone="no"?>
<!DOCTYPE svg PUBLIC "-//W3C//DTD SVG 1.1//EN"
  "http://www.w3.org/Graphics/SVG/1.1/DTD/svg11.dtd">
<svg xmlns:xlink="http://www.w3.org/1999/xlink" width="360pt" height="360pt" viewBox="0 0 360 360" xmlns="http://www.w3.org/2000/svg" version="1.1">
 <metadata>
  <rdf:RDF xmlns:dc="http://purl.org/dc/elements/1.1/" xmlns:cc="http://creativecommons.org/ns#" xmlns:rdf="http://www.w3.org/1999/02/22-rdf-syntax-ns#">
   <cc:Work>
    <dc:type rdf:resource="http://purl.org/dc/dcmitype/StillImage"/>
    <dc:date>2023-07-05T10:06:06.572945</dc:date>
    <dc:format>image/svg+xml</dc:format>
    <dc:creator>
     <cc:Agent>
      <dc:title>Matplotlib v3.5.3, https://matplotlib.org/</dc:title>
     </cc:Agent>
    </dc:creator>
   </cc:Work>
  </rdf:RDF>
 </metadata>
 <defs>
  <style type="text/css">*{stroke-linejoin: round; stroke-linecap: butt}</style>
 </defs>
 <g id="figure_1">
  <g id="patch_1">
   <path d="M 0 360 
L 360 360 
L 360 0 
L 0 0 
z
" style="fill: #ffffff"/>
  </g>
  <g id="axes_1">
   <g id="patch_2">
    <path d="M 64.8 312.66 
L 347.04 312.66 
L 347.04 12.96 
L 64.8 12.96 
z
" style="fill: #eaeaf2"/>
   </g>
   <g id="matplotlib.axis_1">
    <g id="xtick_1">
     <g id="line2d_1">
      <path d="M 81.856207 312.66 
L 81.856207 12.96 
" clip-path="url(#pcf965e4ea4)" style="fill: none; stroke: #ffffff; stroke-linecap: round"/>
     </g>
     <g id="text_1">
      <!-- 0.90 -->
      <g style="fill: #262626" transform="translate(71.152691 330.033594)scale(0.11 -0.11)">
       <defs>
        <path id="ArialMT-30" d="M 266 2259 
Q 266 3072 433 3567 
Q 600 4063 929 4331 
Q 1259 4600 1759 4600 
Q 2128 4600 2406 4451 
Q 2684 4303 2865 4023 
Q 3047 3744 3150 3342 
Q 3253 2941 3253 2259 
Q 3253 1453 3087 958 
Q 2922 463 2592 192 
Q 2263 -78 1759 -78 
Q 1097 -78 719 397 
Q 266 969 266 2259 
z
M 844 2259 
Q 844 1131 1108 757 
Q 1372 384 1759 384 
Q 2147 384 2411 759 
Q 2675 1134 2675 2259 
Q 2675 3391 2411 3762 
Q 2147 4134 1753 4134 
Q 1366 4134 1134 3806 
Q 844 3388 844 2259 
z
" transform="scale(0.015625)"/>
        <path id="ArialMT-2e" d="M 581 0 
L 581 641 
L 1222 641 
L 1222 0 
L 581 0 
z
" transform="scale(0.015625)"/>
        <path id="ArialMT-39" d="M 350 1059 
L 891 1109 
Q 959 728 1153 556 
Q 1347 384 1650 384 
Q 1909 384 2104 503 
Q 2300 622 2425 820 
Q 2550 1019 2634 1356 
Q 2719 1694 2719 2044 
Q 2719 2081 2716 2156 
Q 2547 1888 2255 1720 
Q 1963 1553 1622 1553 
Q 1053 1553 659 1965 
Q 266 2378 266 3053 
Q 266 3750 677 4175 
Q 1088 4600 1706 4600 
Q 2153 4600 2523 4359 
Q 2894 4119 3086 3673 
Q 3278 3228 3278 2384 
Q 3278 1506 3087 986 
Q 2897 466 2520 194 
Q 2144 -78 1638 -78 
Q 1100 -78 759 220 
Q 419 519 350 1059 
z
M 2653 3081 
Q 2653 3566 2395 3850 
Q 2138 4134 1775 4134 
Q 1400 4134 1122 3828 
Q 844 3522 844 3034 
Q 844 2597 1108 2323 
Q 1372 2050 1759 2050 
Q 2150 2050 2401 2323 
Q 2653 2597 2653 3081 
z
" transform="scale(0.015625)"/>
       </defs>
       <use xlink:href="#ArialMT-30"/>
       <use xlink:href="#ArialMT-2e" x="55.615234"/>
       <use xlink:href="#ArialMT-39" x="83.398438"/>
       <use xlink:href="#ArialMT-30" x="139.013672"/>
      </g>
     </g>
    </g>
    <g id="xtick_2">
     <g id="line2d_2">
      <path d="M 132.327147 312.66 
L 132.327147 12.96 
" clip-path="url(#pcf965e4ea4)" style="fill: none; stroke: #ffffff; stroke-linecap: round"/>
     </g>
     <g id="text_2">
      <!-- 0.92 -->
      <g style="fill: #262626" transform="translate(121.623632 330.033594)scale(0.11 -0.11)">
       <defs>
        <path id="ArialMT-32" d="M 3222 541 
L 3222 0 
L 194 0 
Q 188 203 259 391 
Q 375 700 629 1000 
Q 884 1300 1366 1694 
Q 2113 2306 2375 2664 
Q 2638 3022 2638 3341 
Q 2638 3675 2398 3904 
Q 2159 4134 1775 4134 
Q 1369 4134 1125 3890 
Q 881 3647 878 3216 
L 300 3275 
Q 359 3922 746 4261 
Q 1134 4600 1788 4600 
Q 2447 4600 2831 4234 
Q 3216 3869 3216 3328 
Q 3216 3053 3103 2787 
Q 2991 2522 2730 2228 
Q 2469 1934 1863 1422 
Q 1356 997 1212 845 
Q 1069 694 975 541 
L 3222 541 
z
" transform="scale(0.015625)"/>
       </defs>
       <use xlink:href="#ArialMT-30"/>
       <use xlink:href="#ArialMT-2e" x="55.615234"/>
       <use xlink:href="#ArialMT-39" x="83.398438"/>
       <use xlink:href="#ArialMT-32" x="139.013672"/>
      </g>
     </g>
    </g>
    <g id="xtick_3">
     <g id="line2d_3">
      <path d="M 182.798088 312.66 
L 182.798088 12.96 
" clip-path="url(#pcf965e4ea4)" style="fill: none; stroke: #ffffff; stroke-linecap: round"/>
     </g>
     <g id="text_3">
      <!-- 0.94 -->
      <g style="fill: #262626" transform="translate(172.094572 330.033594)scale(0.11 -0.11)">
       <defs>
        <path id="ArialMT-34" d="M 2069 0 
L 2069 1097 
L 81 1097 
L 81 1613 
L 2172 4581 
L 2631 4581 
L 2631 1613 
L 3250 1613 
L 3250 1097 
L 2631 1097 
L 2631 0 
L 2069 0 
z
M 2069 1613 
L 2069 3678 
L 634 1613 
L 2069 1613 
z
" transform="scale(0.015625)"/>
       </defs>
       <use xlink:href="#ArialMT-30"/>
       <use xlink:href="#ArialMT-2e" x="55.615234"/>
       <use xlink:href="#ArialMT-39" x="83.398438"/>
       <use xlink:href="#ArialMT-34" x="139.013672"/>
      </g>
     </g>
    </g>
    <g id="xtick_4">
     <g id="line2d_4">
      <path d="M 233.269028 312.66 
L 233.269028 12.96 
" clip-path="url(#pcf965e4ea4)" style="fill: none; stroke: #ffffff; stroke-linecap: round"/>
     </g>
     <g id="text_4">
      <!-- 0.96 -->
      <g style="fill: #262626" transform="translate(222.565513 330.033594)scale(0.11 -0.11)">
       <defs>
        <path id="ArialMT-36" d="M 3184 3459 
L 2625 3416 
Q 2550 3747 2413 3897 
Q 2184 4138 1850 4138 
Q 1581 4138 1378 3988 
Q 1113 3794 959 3422 
Q 806 3050 800 2363 
Q 1003 2672 1297 2822 
Q 1591 2972 1913 2972 
Q 2475 2972 2870 2558 
Q 3266 2144 3266 1488 
Q 3266 1056 3080 686 
Q 2894 316 2569 119 
Q 2244 -78 1831 -78 
Q 1128 -78 684 439 
Q 241 956 241 2144 
Q 241 3472 731 4075 
Q 1159 4600 1884 4600 
Q 2425 4600 2770 4297 
Q 3116 3994 3184 3459 
z
M 888 1484 
Q 888 1194 1011 928 
Q 1134 663 1356 523 
Q 1578 384 1822 384 
Q 2178 384 2434 671 
Q 2691 959 2691 1453 
Q 2691 1928 2437 2201 
Q 2184 2475 1800 2475 
Q 1419 2475 1153 2201 
Q 888 1928 888 1484 
z
" transform="scale(0.015625)"/>
       </defs>
       <use xlink:href="#ArialMT-30"/>
       <use xlink:href="#ArialMT-2e" x="55.615234"/>
       <use xlink:href="#ArialMT-39" x="83.398438"/>
       <use xlink:href="#ArialMT-36" x="139.013672"/>
      </g>
     </g>
    </g>
    <g id="xtick_5">
     <g id="line2d_5">
      <path d="M 283.739969 312.66 
L 283.739969 12.96 
" clip-path="url(#pcf965e4ea4)" style="fill: none; stroke: #ffffff; stroke-linecap: round"/>
     </g>
     <g id="text_5">
      <!-- 0.98 -->
      <g style="fill: #262626" transform="translate(273.036453 330.033594)scale(0.11 -0.11)">
       <defs>
        <path id="ArialMT-38" d="M 1131 2484 
Q 781 2613 612 2850 
Q 444 3088 444 3419 
Q 444 3919 803 4259 
Q 1163 4600 1759 4600 
Q 2359 4600 2725 4251 
Q 3091 3903 3091 3403 
Q 3091 3084 2923 2848 
Q 2756 2613 2416 2484 
Q 2838 2347 3058 2040 
Q 3278 1734 3278 1309 
Q 3278 722 2862 322 
Q 2447 -78 1769 -78 
Q 1091 -78 675 323 
Q 259 725 259 1325 
Q 259 1772 486 2073 
Q 713 2375 1131 2484 
z
M 1019 3438 
Q 1019 3113 1228 2906 
Q 1438 2700 1772 2700 
Q 2097 2700 2305 2904 
Q 2513 3109 2513 3406 
Q 2513 3716 2298 3927 
Q 2084 4138 1766 4138 
Q 1444 4138 1231 3931 
Q 1019 3725 1019 3438 
z
M 838 1322 
Q 838 1081 952 856 
Q 1066 631 1291 507 
Q 1516 384 1775 384 
Q 2178 384 2440 643 
Q 2703 903 2703 1303 
Q 2703 1709 2433 1975 
Q 2163 2241 1756 2241 
Q 1359 2241 1098 1978 
Q 838 1716 838 1322 
z
" transform="scale(0.015625)"/>
       </defs>
       <use xlink:href="#ArialMT-30"/>
       <use xlink:href="#ArialMT-2e" x="55.615234"/>
       <use xlink:href="#ArialMT-39" x="83.398438"/>
       <use xlink:href="#ArialMT-38" x="139.013672"/>
      </g>
     </g>
    </g>
    <g id="xtick_6">
     <g id="line2d_6">
      <path d="M 334.210909 312.66 
L 334.210909 12.96 
" clip-path="url(#pcf965e4ea4)" style="fill: none; stroke: #ffffff; stroke-linecap: round"/>
     </g>
     <g id="text_6">
      <!-- 1.00 -->
      <g style="fill: #262626" transform="translate(323.507393 330.033594)scale(0.11 -0.11)">
       <defs>
        <path id="ArialMT-31" d="M 2384 0 
L 1822 0 
L 1822 3584 
Q 1619 3391 1289 3197 
Q 959 3003 697 2906 
L 697 3450 
Q 1169 3672 1522 3987 
Q 1875 4303 2022 4600 
L 2384 4600 
L 2384 0 
z
" transform="scale(0.015625)"/>
       </defs>
       <use xlink:href="#ArialMT-31"/>
       <use xlink:href="#ArialMT-2e" x="55.615234"/>
       <use xlink:href="#ArialMT-30" x="83.398438"/>
       <use xlink:href="#ArialMT-30" x="139.013672"/>
      </g>
     </g>
    </g>
    <g id="text_7">
     <!-- BertScore -->
     <g style="fill: #262626" transform="translate(179.243437 344.809219)scale(0.12 -0.12)">
      <defs>
       <path id="ArialMT-42" d="M 469 0 
L 469 4581 
L 2188 4581 
Q 2713 4581 3030 4442 
Q 3347 4303 3526 4014 
Q 3706 3725 3706 3409 
Q 3706 3116 3547 2856 
Q 3388 2597 3066 2438 
Q 3481 2316 3704 2022 
Q 3928 1728 3928 1328 
Q 3928 1006 3792 729 
Q 3656 453 3456 303 
Q 3256 153 2954 76 
Q 2653 0 2216 0 
L 469 0 
z
M 1075 2656 
L 2066 2656 
Q 2469 2656 2644 2709 
Q 2875 2778 2992 2937 
Q 3109 3097 3109 3338 
Q 3109 3566 3000 3739 
Q 2891 3913 2687 3977 
Q 2484 4041 1991 4041 
L 1075 4041 
L 1075 2656 
z
M 1075 541 
L 2216 541 
Q 2509 541 2628 563 
Q 2838 600 2978 687 
Q 3119 775 3209 942 
Q 3300 1109 3300 1328 
Q 3300 1584 3169 1773 
Q 3038 1963 2805 2039 
Q 2572 2116 2134 2116 
L 1075 2116 
L 1075 541 
z
" transform="scale(0.015625)"/>
       <path id="ArialMT-65" d="M 2694 1069 
L 3275 997 
Q 3138 488 2766 206 
Q 2394 -75 1816 -75 
Q 1088 -75 661 373 
Q 234 822 234 1631 
Q 234 2469 665 2931 
Q 1097 3394 1784 3394 
Q 2450 3394 2872 2941 
Q 3294 2488 3294 1666 
Q 3294 1616 3291 1516 
L 816 1516 
Q 847 969 1125 678 
Q 1403 388 1819 388 
Q 2128 388 2347 550 
Q 2566 713 2694 1069 
z
M 847 1978 
L 2700 1978 
Q 2663 2397 2488 2606 
Q 2219 2931 1791 2931 
Q 1403 2931 1139 2672 
Q 875 2413 847 1978 
z
" transform="scale(0.015625)"/>
       <path id="ArialMT-72" d="M 416 0 
L 416 3319 
L 922 3319 
L 922 2816 
Q 1116 3169 1280 3281 
Q 1444 3394 1641 3394 
Q 1925 3394 2219 3213 
L 2025 2691 
Q 1819 2813 1613 2813 
Q 1428 2813 1281 2702 
Q 1134 2591 1072 2394 
Q 978 2094 978 1738 
L 978 0 
L 416 0 
z
" transform="scale(0.015625)"/>
       <path id="ArialMT-74" d="M 1650 503 
L 1731 6 
Q 1494 -44 1306 -44 
Q 1000 -44 831 53 
Q 663 150 594 308 
Q 525 466 525 972 
L 525 2881 
L 113 2881 
L 113 3319 
L 525 3319 
L 525 4141 
L 1084 4478 
L 1084 3319 
L 1650 3319 
L 1650 2881 
L 1084 2881 
L 1084 941 
Q 1084 700 1114 631 
Q 1144 563 1211 522 
Q 1278 481 1403 481 
Q 1497 481 1650 503 
z
" transform="scale(0.015625)"/>
       <path id="ArialMT-53" d="M 288 1472 
L 859 1522 
Q 900 1178 1048 958 
Q 1197 738 1509 602 
Q 1822 466 2213 466 
Q 2559 466 2825 569 
Q 3091 672 3220 851 
Q 3350 1031 3350 1244 
Q 3350 1459 3225 1620 
Q 3100 1781 2813 1891 
Q 2628 1963 1997 2114 
Q 1366 2266 1113 2400 
Q 784 2572 623 2826 
Q 463 3081 463 3397 
Q 463 3744 659 4045 
Q 856 4347 1234 4503 
Q 1613 4659 2075 4659 
Q 2584 4659 2973 4495 
Q 3363 4331 3572 4012 
Q 3781 3694 3797 3291 
L 3216 3247 
Q 3169 3681 2898 3903 
Q 2628 4125 2100 4125 
Q 1550 4125 1298 3923 
Q 1047 3722 1047 3438 
Q 1047 3191 1225 3031 
Q 1400 2872 2139 2705 
Q 2878 2538 3153 2413 
Q 3553 2228 3743 1945 
Q 3934 1663 3934 1294 
Q 3934 928 3725 604 
Q 3516 281 3123 101 
Q 2731 -78 2241 -78 
Q 1619 -78 1198 103 
Q 778 284 539 648 
Q 300 1013 288 1472 
z
" transform="scale(0.015625)"/>
       <path id="ArialMT-63" d="M 2588 1216 
L 3141 1144 
Q 3050 572 2676 248 
Q 2303 -75 1759 -75 
Q 1078 -75 664 370 
Q 250 816 250 1647 
Q 250 2184 428 2587 
Q 606 2991 970 3192 
Q 1334 3394 1763 3394 
Q 2303 3394 2647 3120 
Q 2991 2847 3088 2344 
L 2541 2259 
Q 2463 2594 2264 2762 
Q 2066 2931 1784 2931 
Q 1359 2931 1093 2626 
Q 828 2322 828 1663 
Q 828 994 1084 691 
Q 1341 388 1753 388 
Q 2084 388 2306 591 
Q 2528 794 2588 1216 
z
" transform="scale(0.015625)"/>
       <path id="ArialMT-6f" d="M 213 1659 
Q 213 2581 725 3025 
Q 1153 3394 1769 3394 
Q 2453 3394 2887 2945 
Q 3322 2497 3322 1706 
Q 3322 1066 3130 698 
Q 2938 331 2570 128 
Q 2203 -75 1769 -75 
Q 1072 -75 642 372 
Q 213 819 213 1659 
z
M 791 1659 
Q 791 1022 1069 705 
Q 1347 388 1769 388 
Q 2188 388 2466 706 
Q 2744 1025 2744 1678 
Q 2744 2294 2464 2611 
Q 2184 2928 1769 2928 
Q 1347 2928 1069 2612 
Q 791 2297 791 1659 
z
" transform="scale(0.015625)"/>
      </defs>
      <use xlink:href="#ArialMT-42"/>
      <use xlink:href="#ArialMT-65" x="66.699219"/>
      <use xlink:href="#ArialMT-72" x="122.314453"/>
      <use xlink:href="#ArialMT-74" x="155.615234"/>
      <use xlink:href="#ArialMT-53" x="183.398438"/>
      <use xlink:href="#ArialMT-63" x="250.097656"/>
      <use xlink:href="#ArialMT-6f" x="300.097656"/>
      <use xlink:href="#ArialMT-72" x="355.712891"/>
      <use xlink:href="#ArialMT-65" x="389.013672"/>
     </g>
    </g>
   </g>
   <g id="matplotlib.axis_2">
    <g id="ytick_1">
     <g id="line2d_7">
      <path d="M 64.8 291.53012 
L 347.04 291.53012 
" clip-path="url(#pcf965e4ea4)" style="fill: none; stroke: #ffffff; stroke-linecap: round"/>
     </g>
     <g id="text_8">
      <!-- 0.350 -->
      <g style="fill: #262626" transform="translate(27.775937 295.466917)scale(0.11 -0.11)">
       <defs>
        <path id="ArialMT-33" d="M 269 1209 
L 831 1284 
Q 928 806 1161 595 
Q 1394 384 1728 384 
Q 2125 384 2398 659 
Q 2672 934 2672 1341 
Q 2672 1728 2419 1979 
Q 2166 2231 1775 2231 
Q 1616 2231 1378 2169 
L 1441 2663 
Q 1497 2656 1531 2656 
Q 1891 2656 2178 2843 
Q 2466 3031 2466 3422 
Q 2466 3731 2256 3934 
Q 2047 4138 1716 4138 
Q 1388 4138 1169 3931 
Q 950 3725 888 3313 
L 325 3413 
Q 428 3978 793 4289 
Q 1159 4600 1703 4600 
Q 2078 4600 2393 4439 
Q 2709 4278 2876 4000 
Q 3044 3722 3044 3409 
Q 3044 3113 2884 2869 
Q 2725 2625 2413 2481 
Q 2819 2388 3044 2092 
Q 3269 1797 3269 1353 
Q 3269 753 2831 336 
Q 2394 -81 1725 -81 
Q 1122 -81 723 278 
Q 325 638 269 1209 
z
" transform="scale(0.015625)"/>
        <path id="ArialMT-35" d="M 266 1200 
L 856 1250 
Q 922 819 1161 601 
Q 1400 384 1738 384 
Q 2144 384 2425 690 
Q 2706 997 2706 1503 
Q 2706 1984 2436 2262 
Q 2166 2541 1728 2541 
Q 1456 2541 1237 2417 
Q 1019 2294 894 2097 
L 366 2166 
L 809 4519 
L 3088 4519 
L 3088 3981 
L 1259 3981 
L 1013 2750 
Q 1425 3038 1878 3038 
Q 2478 3038 2890 2622 
Q 3303 2206 3303 1553 
Q 3303 931 2941 478 
Q 2500 -78 1738 -78 
Q 1113 -78 717 272 
Q 322 622 266 1200 
z
" transform="scale(0.015625)"/>
       </defs>
       <use xlink:href="#ArialMT-30"/>
       <use xlink:href="#ArialMT-2e" x="55.615234"/>
       <use xlink:href="#ArialMT-33" x="83.398438"/>
       <use xlink:href="#ArialMT-35" x="139.013672"/>
       <use xlink:href="#ArialMT-30" x="194.628906"/>
      </g>
     </g>
    </g>
    <g id="ytick_2">
     <g id="line2d_8">
      <path d="M 64.8 255.42004 
L 347.04 255.42004 
" clip-path="url(#pcf965e4ea4)" style="fill: none; stroke: #ffffff; stroke-linecap: round"/>
     </g>
     <g id="text_9">
      <!-- 0.375 -->
      <g style="fill: #262626" transform="translate(27.775937 259.356837)scale(0.11 -0.11)">
       <defs>
        <path id="ArialMT-37" d="M 303 3981 
L 303 4522 
L 3269 4522 
L 3269 4084 
Q 2831 3619 2401 2847 
Q 1972 2075 1738 1259 
Q 1569 684 1522 0 
L 944 0 
Q 953 541 1156 1306 
Q 1359 2072 1739 2783 
Q 2119 3494 2547 3981 
L 303 3981 
z
" transform="scale(0.015625)"/>
       </defs>
       <use xlink:href="#ArialMT-30"/>
       <use xlink:href="#ArialMT-2e" x="55.615234"/>
       <use xlink:href="#ArialMT-33" x="83.398438"/>
       <use xlink:href="#ArialMT-37" x="139.013672"/>
       <use xlink:href="#ArialMT-35" x="194.628906"/>
      </g>
     </g>
    </g>
    <g id="ytick_3">
     <g id="line2d_9">
      <path d="M 64.8 219.30996 
L 347.04 219.30996 
" clip-path="url(#pcf965e4ea4)" style="fill: none; stroke: #ffffff; stroke-linecap: round"/>
     </g>
     <g id="text_10">
      <!-- 0.400 -->
      <g style="fill: #262626" transform="translate(27.775937 223.246757)scale(0.11 -0.11)">
       <use xlink:href="#ArialMT-30"/>
       <use xlink:href="#ArialMT-2e" x="55.615234"/>
       <use xlink:href="#ArialMT-34" x="83.398438"/>
       <use xlink:href="#ArialMT-30" x="139.013672"/>
       <use xlink:href="#ArialMT-30" x="194.628906"/>
      </g>
     </g>
    </g>
    <g id="ytick_4">
     <g id="line2d_10">
      <path d="M 64.8 183.19988 
L 347.04 183.19988 
" clip-path="url(#pcf965e4ea4)" style="fill: none; stroke: #ffffff; stroke-linecap: round"/>
     </g>
     <g id="text_11">
      <!-- 0.425 -->
      <g style="fill: #262626" transform="translate(27.775937 187.136677)scale(0.11 -0.11)">
       <use xlink:href="#ArialMT-30"/>
       <use xlink:href="#ArialMT-2e" x="55.615234"/>
       <use xlink:href="#ArialMT-34" x="83.398438"/>
       <use xlink:href="#ArialMT-32" x="139.013672"/>
       <use xlink:href="#ArialMT-35" x="194.628906"/>
      </g>
     </g>
    </g>
    <g id="ytick_5">
     <g id="line2d_11">
      <path d="M 64.8 147.0898 
L 347.04 147.0898 
" clip-path="url(#pcf965e4ea4)" style="fill: none; stroke: #ffffff; stroke-linecap: round"/>
     </g>
     <g id="text_12">
      <!-- 0.450 -->
      <g style="fill: #262626" transform="translate(27.775937 151.026597)scale(0.11 -0.11)">
       <use xlink:href="#ArialMT-30"/>
       <use xlink:href="#ArialMT-2e" x="55.615234"/>
       <use xlink:href="#ArialMT-34" x="83.398438"/>
       <use xlink:href="#ArialMT-35" x="139.013672"/>
       <use xlink:href="#ArialMT-30" x="194.628906"/>
      </g>
     </g>
    </g>
    <g id="ytick_6">
     <g id="line2d_12">
      <path d="M 64.8 110.97972 
L 347.04 110.97972 
" clip-path="url(#pcf965e4ea4)" style="fill: none; stroke: #ffffff; stroke-linecap: round"/>
     </g>
     <g id="text_13">
      <!-- 0.475 -->
      <g style="fill: #262626" transform="translate(27.775937 114.916516)scale(0.11 -0.11)">
       <use xlink:href="#ArialMT-30"/>
       <use xlink:href="#ArialMT-2e" x="55.615234"/>
       <use xlink:href="#ArialMT-34" x="83.398438"/>
       <use xlink:href="#ArialMT-37" x="139.013672"/>
       <use xlink:href="#ArialMT-35" x="194.628906"/>
      </g>
     </g>
    </g>
    <g id="ytick_7">
     <g id="line2d_13">
      <path d="M 64.8 74.86964 
L 347.04 74.86964 
" clip-path="url(#pcf965e4ea4)" style="fill: none; stroke: #ffffff; stroke-linecap: round"/>
     </g>
     <g id="text_14">
      <!-- 0.500 -->
      <g style="fill: #262626" transform="translate(27.775937 78.806436)scale(0.11 -0.11)">
       <use xlink:href="#ArialMT-30"/>
       <use xlink:href="#ArialMT-2e" x="55.615234"/>
       <use xlink:href="#ArialMT-35" x="83.398438"/>
       <use xlink:href="#ArialMT-30" x="139.013672"/>
       <use xlink:href="#ArialMT-30" x="194.628906"/>
      </g>
     </g>
    </g>
    <g id="ytick_8">
     <g id="line2d_14">
      <path d="M 64.8 38.759559 
L 347.04 38.759559 
" clip-path="url(#pcf965e4ea4)" style="fill: none; stroke: #ffffff; stroke-linecap: round"/>
     </g>
     <g id="text_15">
      <!-- 0.525 -->
      <g style="fill: #262626" transform="translate(27.775937 42.696356)scale(0.11 -0.11)">
       <use xlink:href="#ArialMT-30"/>
       <use xlink:href="#ArialMT-2e" x="55.615234"/>
       <use xlink:href="#ArialMT-35" x="83.398438"/>
       <use xlink:href="#ArialMT-32" x="139.013672"/>
       <use xlink:href="#ArialMT-35" x="194.628906"/>
      </g>
     </g>
    </g>
    <g id="text_16">
     <!-- F1 CRF -->
     <g style="fill: #262626" transform="translate(21.390937 183.809063)rotate(-90)scale(0.12 -0.12)">
      <defs>
       <path id="ArialMT-46" d="M 525 0 
L 525 4581 
L 3616 4581 
L 3616 4041 
L 1131 4041 
L 1131 2622 
L 3281 2622 
L 3281 2081 
L 1131 2081 
L 1131 0 
L 525 0 
z
" transform="scale(0.015625)"/>
       <path id="ArialMT-20" transform="scale(0.015625)"/>
       <path id="ArialMT-43" d="M 3763 1606 
L 4369 1453 
Q 4178 706 3683 314 
Q 3188 -78 2472 -78 
Q 1731 -78 1267 223 
Q 803 525 561 1097 
Q 319 1669 319 2325 
Q 319 3041 592 3573 
Q 866 4106 1370 4382 
Q 1875 4659 2481 4659 
Q 3169 4659 3637 4309 
Q 4106 3959 4291 3325 
L 3694 3184 
Q 3534 3684 3231 3912 
Q 2928 4141 2469 4141 
Q 1941 4141 1586 3887 
Q 1231 3634 1087 3207 
Q 944 2781 944 2328 
Q 944 1744 1114 1308 
Q 1284 872 1643 656 
Q 2003 441 2422 441 
Q 2931 441 3284 734 
Q 3638 1028 3763 1606 
z
" transform="scale(0.015625)"/>
       <path id="ArialMT-52" d="M 503 0 
L 503 4581 
L 2534 4581 
Q 3147 4581 3465 4457 
Q 3784 4334 3975 4021 
Q 4166 3709 4166 3331 
Q 4166 2844 3850 2509 
Q 3534 2175 2875 2084 
Q 3116 1969 3241 1856 
Q 3506 1613 3744 1247 
L 4541 0 
L 3778 0 
L 3172 953 
Q 2906 1366 2734 1584 
Q 2563 1803 2427 1890 
Q 2291 1978 2150 2013 
Q 2047 2034 1813 2034 
L 1109 2034 
L 1109 0 
L 503 0 
z
M 1109 2559 
L 2413 2559 
Q 2828 2559 3062 2645 
Q 3297 2731 3419 2920 
Q 3541 3109 3541 3331 
Q 3541 3656 3305 3865 
Q 3069 4075 2559 4075 
L 1109 4075 
L 1109 2559 
z
" transform="scale(0.015625)"/>
      </defs>
      <use xlink:href="#ArialMT-46"/>
      <use xlink:href="#ArialMT-31" x="61.083984"/>
      <use xlink:href="#ArialMT-20" x="116.699219"/>
      <use xlink:href="#ArialMT-43" x="144.482422"/>
      <use xlink:href="#ArialMT-52" x="216.699219"/>
      <use xlink:href="#ArialMT-46" x="288.916016"/>
     </g>
    </g>
   </g>
   <g id="PathCollection_1">
    <defs>
     <path id="m62cb42877d" d="M 0 3 
C 0.795609 3 1.55874 2.683901 2.12132 2.12132 
C 2.683901 1.55874 3 0.795609 3 0 
C 3 -0.795609 2.683901 -1.55874 2.12132 -2.12132 
C 1.55874 -2.683901 0.795609 -3 0 -3 
C -0.795609 -3 -1.55874 -2.683901 -2.12132 -2.12132 
C -2.683901 -1.55874 -3 -0.795609 -3 0 
C -3 0.795609 -2.683901 1.55874 -2.12132 2.12132 
C -1.55874 2.683901 -0.795609 3 0 3 
z
" style="stroke: #4c72b0; stroke-opacity: 0.8"/>
    </defs>
    <g clip-path="url(#pcf965e4ea4)">
     <use xlink:href="#m62cb42877d" x="77.629091" y="187.713398" style="fill: #4c72b0; fill-opacity: 0.8; stroke: #4c72b0; stroke-opacity: 0.8"/>
     <use xlink:href="#m62cb42877d" x="237.879709" y="132.097803" style="fill: #4c72b0; fill-opacity: 0.8; stroke: #4c72b0; stroke-opacity: 0.8"/>
     <use xlink:href="#m62cb42877d" x="265.182641" y="93.500453" style="fill: #4c72b0; fill-opacity: 0.8; stroke: #4c72b0; stroke-opacity: 0.8"/>
     <use xlink:href="#m62cb42877d" x="290.933289" y="70.407376" style="fill: #4c72b0; fill-opacity: 0.8; stroke: #4c72b0; stroke-opacity: 0.8"/>
     <use xlink:href="#m62cb42877d" x="312.445239" y="42.689531" style="fill: #4c72b0; fill-opacity: 0.8; stroke: #4c72b0; stroke-opacity: 0.8"/>
     <use xlink:href="#m62cb42877d" x="327.955836" y="36.575413" style="fill: #4c72b0; fill-opacity: 0.8; stroke: #4c72b0; stroke-opacity: 0.8"/>
     <use xlink:href="#m62cb42877d" x="330.774736" y="29.085758" style="fill: #4c72b0; fill-opacity: 0.8; stroke: #4c72b0; stroke-opacity: 0.8"/>
     <use xlink:href="#m62cb42877d" x="334.210909" y="38.231356" style="fill: #4c72b0; fill-opacity: 0.8; stroke: #4c72b0; stroke-opacity: 0.8"/>
     <use xlink:href="#m62cb42877d" x="334.210909" y="38.231356" style="fill: #4c72b0; fill-opacity: 0.8; stroke: #4c72b0; stroke-opacity: 0.8"/>
    </g>
   </g>
   <g id="PolyCollection_1">
    <defs>
     <path id="m507737c688" d="M 77.629091 -172.336131 
L 77.629091 -60.962727 
L 80.220826 -63.724062 
L 82.812562 -66.485397 
L 85.404298 -69.246733 
L 87.996033 -72.008068 
L 90.587769 -74.769403 
L 93.179504 -77.525753 
L 95.77124 -80.253929 
L 98.362975 -82.982106 
L 100.954711 -85.710282 
L 103.546446 -88.438459 
L 106.138182 -91.166635 
L 108.729917 -93.894812 
L 111.321653 -96.622989 
L 113.913388 -99.374444 
L 116.505124 -102.15486 
L 119.09686 -104.935275 
L 121.688595 -107.715691 
L 124.280331 -110.423724 
L 126.872066 -113.125233 
L 129.463802 -115.826743 
L 132.055537 -118.528252 
L 134.647273 -121.229761 
L 137.239008 -123.931271 
L 139.830744 -126.63278 
L 142.422479 -129.345088 
L 145.014215 -132.071241 
L 147.60595 -134.797395 
L 150.197686 -137.523548 
L 152.789421 -140.249701 
L 155.381157 -142.975855 
L 157.972893 -145.702493 
L 160.564628 -148.431033 
L 163.156364 -151.159573 
L 165.748099 -153.946027 
L 168.339835 -156.740611 
L 170.93157 -159.535195 
L 173.523306 -162.329779 
L 176.115041 -165.067188 
L 178.706777 -167.791509 
L 181.298512 -170.515831 
L 183.890248 -173.240152 
L 186.481983 -175.96651 
L 189.073719 -178.693413 
L 191.665455 -181.442 
L 194.25719 -184.148555 
L 196.848926 -186.866857 
L 199.440661 -189.604667 
L 202.032397 -192.421585 
L 204.624132 -195.050941 
L 207.215868 -197.778022 
L 209.807603 -200.563861 
L 212.399339 -203.337895 
L 214.991074 -206.120841 
L 217.58281 -208.806525 
L 220.174545 -211.4866 
L 222.766281 -214.139943 
L 225.358017 -216.894122 
L 227.949752 -219.648821 
L 230.541488 -222.364426 
L 233.133223 -225.125249 
L 235.724959 -227.760532 
L 238.316694 -230.506446 
L 240.90843 -233.241851 
L 243.500165 -235.85529 
L 246.091901 -238.473413 
L 248.683636 -241.143589 
L 251.275372 -243.885552 
L 253.867107 -246.621187 
L 256.458843 -249.334038 
L 259.050579 -251.982349 
L 261.642314 -254.695874 
L 264.23405 -257.278696 
L 266.825785 -259.999306 
L 269.417521 -262.573676 
L 272.009256 -265.11185 
L 274.600992 -267.763877 
L 277.192727 -270.376638 
L 279.784463 -272.990673 
L 282.376198 -275.466631 
L 284.967934 -277.921595 
L 287.559669 -280.324681 
L 290.151405 -282.656723 
L 292.74314 -284.875402 
L 295.334876 -286.701516 
L 297.926612 -288.936134 
L 300.518347 -291.153554 
L 303.110083 -293.217894 
L 305.701818 -294.728651 
L 308.293554 -296.202675 
L 310.885289 -297.6767 
L 313.477025 -299.167802 
L 316.06876 -300.620771 
L 318.660496 -302.275274 
L 321.252231 -303.817921 
L 323.843967 -305.289117 
L 326.435702 -306.89021 
L 329.027438 -308.45294 
L 331.619174 -309.915125 
L 334.210909 -311.494712 
L 334.210909 -333.417273 
L 334.210909 -333.417273 
L 331.619174 -330.679459 
L 329.027438 -327.971011 
L 326.435702 -325.515413 
L 323.843967 -323.003216 
L 321.252231 -320.661382 
L 318.660496 -318.743589 
L 316.06876 -316.480116 
L 313.477025 -314.631693 
L 310.885289 -313.003415 
L 308.293554 -311.120807 
L 305.701818 -309.558098 
L 303.110083 -308.005839 
L 300.518347 -306.45358 
L 297.926612 -304.901321 
L 295.334876 -303.343652 
L 292.74314 -301.732936 
L 290.151405 -300.12222 
L 287.559669 -298.511505 
L 284.967934 -296.91829 
L 282.376198 -295.356214 
L 279.784463 -293.794139 
L 277.192727 -292.23047 
L 274.600992 -290.666764 
L 272.009256 -289.103058 
L 269.417521 -287.539353 
L 266.825785 -285.967027 
L 264.23405 -284.35245 
L 261.642314 -282.737874 
L 259.050579 -281.170433 
L 256.458843 -279.609161 
L 253.867107 -278.04765 
L 251.275372 -276.500481 
L 248.683636 -274.956938 
L 246.091901 -273.385047 
L 243.500165 -271.801735 
L 240.90843 -270.240964 
L 238.316694 -268.679065 
L 235.724959 -267.117134 
L 233.133223 -265.555204 
L 230.541488 -263.976233 
L 227.949752 -262.3882 
L 225.358017 -260.800167 
L 222.766281 -259.212134 
L 220.174545 -257.623962 
L 217.58281 -256.035489 
L 214.991074 -254.47638 
L 212.399339 -252.927094 
L 209.807603 -251.377808 
L 207.215868 -249.828522 
L 204.624132 -248.270287 
L 202.032397 -246.698903 
L 199.440661 -245.150824 
L 196.848926 -243.602746 
L 194.25719 -242.054667 
L 191.665455 -240.506589 
L 189.073719 -238.95851 
L 186.481983 -237.409955 
L 183.890248 -235.82705 
L 181.298512 -234.284011 
L 178.706777 -232.721489 
L 176.115041 -231.159336 
L 173.523306 -229.617107 
L 170.93157 -228.065608 
L 168.339835 -226.479158 
L 165.748099 -224.911647 
L 163.156364 -223.358753 
L 160.564628 -221.80379 
L 157.972893 -220.248826 
L 155.381157 -218.693611 
L 152.789421 -217.138266 
L 150.197686 -215.582921 
L 147.60595 -214.036985 
L 145.014215 -212.492845 
L 142.422479 -210.948706 
L 139.830744 -209.404566 
L 137.239008 -207.857585 
L 134.647273 -206.295673 
L 132.055537 -204.733761 
L 129.463802 -203.171848 
L 126.872066 -201.609936 
L 124.280331 -200.048024 
L 121.688595 -198.486111 
L 119.09686 -196.924199 
L 116.505124 -195.373964 
L 113.913388 -193.841145 
L 111.321653 -192.307554 
L 108.729917 -190.773822 
L 106.138182 -189.226674 
L 103.546446 -187.647218 
L 100.954711 -186.080072 
L 98.362975 -184.554688 
L 95.77124 -183.029304 
L 93.179504 -181.50392 
L 90.587769 -179.978536 
L 87.996033 -178.453152 
L 85.404298 -176.927682 
L 82.812562 -175.402007 
L 80.220826 -173.876332 
L 77.629091 -172.336131 
z
" style="stroke: #ffffff; stroke-opacity: 0.15"/>
    </defs>
    <g clip-path="url(#pcf965e4ea4)">
     <use xlink:href="#m507737c688" x="0" y="360" style="fill: #4c72b0; fill-opacity: 0.15; stroke: #ffffff; stroke-opacity: 0.15"/>
    </g>
   </g>
   <g id="line2d_15">
    <path d="M 77.629091 201.851647 
L 80.220826 200.20996 
L 82.812562 198.568274 
L 85.404298 196.926588 
L 87.996033 195.284902 
L 90.587769 193.643216 
L 93.179504 192.00153 
L 95.77124 190.359844 
L 98.362975 188.718158 
L 100.954711 187.076471 
L 103.546446 185.434785 
L 106.138182 183.793099 
L 108.729917 182.151413 
L 111.321653 180.509727 
L 113.913388 178.868041 
L 116.505124 177.226355 
L 119.09686 175.584669 
L 121.688595 173.942983 
L 124.280331 172.301296 
L 126.872066 170.65961 
L 129.463802 169.017924 
L 132.055537 167.376238 
L 134.647273 165.734552 
L 137.239008 164.092866 
L 139.830744 162.45118 
L 142.422479 160.809494 
L 145.014215 159.167807 
L 147.60595 157.526121 
L 150.197686 155.884435 
L 152.789421 154.242749 
L 155.381157 152.601063 
L 157.972893 150.959377 
L 160.564628 149.317691 
L 163.156364 147.676005 
L 165.748099 146.034319 
L 168.339835 144.392632 
L 170.93157 142.750946 
L 173.523306 141.10926 
L 176.115041 139.467574 
L 178.706777 137.825888 
L 181.298512 136.184202 
L 183.890248 134.542516 
L 186.481983 132.90083 
L 189.073719 131.259144 
L 191.665455 129.617457 
L 194.25719 127.975771 
L 196.848926 126.334085 
L 199.440661 124.692399 
L 202.032397 123.050713 
L 204.624132 121.409027 
L 207.215868 119.767341 
L 209.807603 118.125655 
L 212.399339 116.483968 
L 214.991074 114.842282 
L 217.58281 113.200596 
L 220.174545 111.55891 
L 222.766281 109.917224 
L 225.358017 108.275538 
L 227.949752 106.633852 
L 230.541488 104.992166 
L 233.133223 103.35048 
L 235.724959 101.708793 
L 238.316694 100.067107 
L 240.90843 98.425421 
L 243.500165 96.783735 
L 246.091901 95.142049 
L 248.683636 93.500363 
L 251.275372 91.858677 
L 253.867107 90.216991 
L 256.458843 88.575304 
L 259.050579 86.933618 
L 261.642314 85.291932 
L 264.23405 83.650246 
L 266.825785 82.00856 
L 269.417521 80.366874 
L 272.009256 78.725188 
L 274.600992 77.083502 
L 277.192727 75.441816 
L 279.784463 73.800129 
L 282.376198 72.158443 
L 284.967934 70.516757 
L 287.559669 68.875071 
L 290.151405 67.233385 
L 292.74314 65.591699 
L 295.334876 63.950013 
L 297.926612 62.308327 
L 300.518347 60.66664 
L 303.110083 59.024954 
L 305.701818 57.383268 
L 308.293554 55.741582 
L 310.885289 54.099896 
L 313.477025 52.45821 
L 316.06876 50.816524 
L 318.660496 49.174838 
L 321.252231 47.533152 
L 323.843967 45.891465 
L 326.435702 44.249779 
L 329.027438 42.608093 
L 331.619174 40.966407 
L 334.210909 39.324721 
" clip-path="url(#pcf965e4ea4)" style="fill: none; stroke: #4c72b0; stroke-width: 2.25; stroke-linecap: round"/>
   </g>
   <g id="patch_3">
    <path d="M 64.8 312.66 
L 64.8 12.96 
" style="fill: none; stroke: #ffffff; stroke-width: 1.25; stroke-linejoin: miter; stroke-linecap: square"/>
   </g>
   <g id="patch_4">
    <path d="M 64.8 312.66 
L 347.04 312.66 
" style="fill: none; stroke: #ffffff; stroke-width: 1.25; stroke-linejoin: miter; stroke-linecap: square"/>
   </g>
  </g>
 </g>
 <defs>
  <clipPath id="pcf965e4ea4">
   <rect x="64.8" y="12.96" width="282.24" height="299.7"/>
  </clipPath>
 </defs>
</svg>
